<?xml version="1.0" encoding="UTF-8" standalone="no"?>
<!DOCTYPE svg PUBLIC "-//W3C//DTD SVG 1.1//EN"
 "http://www.w3.org/Graphics/SVG/1.1/DTD/svg11.dtd">
<!-- Generated by graphviz version 2.40.1 (20161225.0304)
 -->
<!-- Pages: 1 -->
<svg width="872pt" height="517pt"
 viewBox="0.00 0.00 871.56 517.00" xmlns="http://www.w3.org/2000/svg" xmlns:xlink="http://www.w3.org/1999/xlink">
<g id="graph0" class="graph" transform="scale(1 1) rotate(0) translate(4 513)">
<polygon fill="#ffffff" stroke="transparent" points="-4,4 -4,-513 867.5638,-513 867.5638,4 -4,4"/>
<g id="clust1" class="cluster">
<title>cluster_legend</title>
<polygon fill="#ffffff" stroke="#ffffff" points="8,-8 8,-277 308.7698,-277 308.7698,-8 8,-8"/>
<text text-anchor="middle" x="158.3849" y="-240.6" font-family="Times,serif" font-size="36.00" fill="#000000">Color Legend</text>
</g>
<g id="clust2" class="cluster">
<title>cluster_main</title>
<polygon fill="none" stroke="transparent" points="40.5381,-285 40.5381,-501 855.5638,-501 855.5638,-285 40.5381,-285"/>
<text text-anchor="middle" x="448.0509" y="-453.8" font-family="Times,serif" font-size="48.00" fill="#000000">Data Source: WGS COVID&#45;19</text>
</g>
<!-- kc1 -->
<g id="node1" class="node">
<title>kc1</title>
<polygon fill="#27408b" stroke="#000000" points="300.7698,-217 246.7698,-217 246.7698,-181 300.7698,-181 300.7698,-217"/>
</g>
<!-- k1 -->
<g id="node2" class="node">
<title>k1</title>
<text text-anchor="middle" x="102.9708" y="-191.8" font-family="Times,serif" font-size="24.00" fill="#000000">reports_internal&#13;</text>
</g>
<!-- k1&#45;&gt;kc1 -->
<!-- kc2 -->
<g id="node3" class="node">
<title>kc2</title>
<polygon fill="#54ff9f" stroke="#000000" points="300.7698,-162 246.7698,-162 246.7698,-126 300.7698,-126 300.7698,-162"/>
</g>
<!-- k2 -->
<g id="node4" class="node">
<title>k2</title>
<text text-anchor="middle" x="102.9708" y="-136.8" font-family="Times,serif" font-size="24.00" fill="#000000">ai_raw&#13;</text>
</g>
<!-- k2&#45;&gt;kc2 -->
<!-- kc3 -->
<g id="node5" class="node">
<title>kc3</title>
<polygon fill="#43cd80" stroke="#000000" points="300.7698,-107 246.7698,-107 246.7698,-71 300.7698,-71 300.7698,-107"/>
</g>
<!-- k3 -->
<g id="node6" class="node">
<title>k3</title>
<text text-anchor="middle" x="102.9708" y="-81.8" font-family="Times,serif" font-size="24.00" fill="#000000">ai_staging&#13;</text>
</g>
<!-- k3&#45;&gt;kc3 -->
<!-- kc4 -->
<g id="node7" class="node">
<title>kc4</title>
<polygon fill="#2e8b57" stroke="#000000" points="300.7698,-52 246.7698,-52 246.7698,-16 300.7698,-16 300.7698,-52"/>
</g>
<!-- k4 -->
<g id="node8" class="node">
<title>k4</title>
<text text-anchor="middle" x="102.9708" y="-26.8" font-family="Times,serif" font-size="24.00" fill="#000000">ai_prod&#13;</text>
</g>
<!-- k4&#45;&gt;kc4 -->
<!-- 1 -->
<g id="node9" class="node">
<title>1</title>
<g id="a_node9"><a xlink:title="ai_prod.&#10;cov_wgs">
<polygon fill="#2e8b57" stroke="#000000" points="437.1924,-361.6017 373.66,-361.6017 373.66,-314.3983 437.1924,-314.3983 437.1924,-361.6017"/>
<text text-anchor="middle" x="405.4262" y="-342.2" font-family="Times,serif" font-size="14.00" fill="#fffafa">ai_prod.</text>
<text text-anchor="middle" x="405.4262" y="-325.4" font-family="Times,serif" font-size="14.00" fill="#fffafa">cov_wgs</text>
</a>
</g>
</g>
<!-- 3 -->
<g id="node11" class="node">
<title>3</title>
<g id="a_node11"><a xlink:title="ai_prod.&#10;cov_wgs_perc_seq">
<polygon fill="#2e8b57" stroke="#000000" points="615.7569,-340.6017 495.7253,-340.6017 495.7253,-293.3983 615.7569,-293.3983 615.7569,-340.6017"/>
<text text-anchor="middle" x="555.7411" y="-321.2" font-family="Times,serif" font-size="14.00" fill="#fffafa">ai_prod.</text>
<text text-anchor="middle" x="555.7411" y="-304.4" font-family="Times,serif" font-size="14.00" fill="#fffafa">cov_wgs_perc_seq</text>
</a>
</g>
</g>
<!-- 1&#45;&gt;3 -->
<g id="edge6" class="edge">
<title>1&#45;&gt;3</title>
<g id="a_edge6"><a xlink:href="https://github.com/PHSKC-Analytics-Informatics/Data_Pipeline/blob/main/Scripts%20-%20Data%20Sources/WGS%20COVID-19/05_prod_04_cov_wgs_perc_seq.R" xlink:title="05_prod_04_cov_wgs_perc_seq.R">
<path fill="none" stroke="#000000" stroke-width="1.5" d="M437.3041,-333.5464C451.496,-331.5637 468.8111,-329.1447 485.7722,-326.7751"/>
<polygon fill="#000000" stroke="#000000" stroke-width="1.5" points="486.2719,-330.2394 495.6914,-325.3893 485.3033,-323.3067 486.2719,-330.2394"/>
</a>
</g>
</g>
<!-- 4 -->
<g id="node12" class="node">
<title>4</title>
<g id="a_node12"><a xlink:title="ai_prod.&#10;cov_wgs_weekly_tot">
<polygon fill="#2e8b57" stroke="#000000" points="622.2145,-406.6017 489.2677,-406.6017 489.2677,-359.3983 622.2145,-359.3983 622.2145,-406.6017"/>
<text text-anchor="middle" x="555.7411" y="-387.2" font-family="Times,serif" font-size="14.00" fill="#fffafa">ai_prod.</text>
<text text-anchor="middle" x="555.7411" y="-370.4" font-family="Times,serif" font-size="14.00" fill="#fffafa">cov_wgs_weekly_tot</text>
</a>
</g>
</g>
<!-- 1&#45;&gt;4 -->
<g id="edge5" class="edge">
<title>1&#45;&gt;4</title>
<g id="a_edge5"><a xlink:href="https://github.com/PHSKC-Analytics-Informatics/Data_Pipeline/blob/main/Scripts%20-%20Data%20Sources/WGS%20COVID-19/05_prod_03_cov_wgs_weekly_tot.R" xlink:title="05_prod_03_cov_wgs_weekly_tot.R">
<path fill="none" stroke="#000000" stroke-width="1.5" d="M437.3041,-347.5433C449.7462,-351.2681 464.5888,-355.7116 479.4888,-360.1722"/>
<polygon fill="#000000" stroke="#000000" stroke-width="1.5" points="478.6801,-363.5835 489.2638,-363.0986 480.6877,-356.8776 478.6801,-363.5835"/>
</a>
</g>
</g>
<!-- 8 -->
<g id="node16" class="node">
<title>8</title>
<g id="a_node16"><a xlink:title="reports_internal&#10;A&amp;I Respiratory Virus Review">
<polygon fill="#27408b" stroke="#000000" points="847.7321,-383.6017 658.0595,-383.6017 658.0595,-336.3983 847.7321,-336.3983 847.7321,-383.6017"/>
<text text-anchor="middle" x="752.8958" y="-364.2" font-family="Times,serif" font-size="14.00" fill="#fffafa">reports_internal</text>
<text text-anchor="middle" x="752.8958" y="-347.4" font-family="Times,serif" font-size="14.00" fill="#fffafa">A&amp;I Respiratory Virus Review</text>
</a>
</g>
</g>
<!-- 1&#45;&gt;8 -->
<g id="edge7" class="edge">
<title>1&#45;&gt;8</title>
<g id="a_edge7"><a xlink:href="NA" xlink:title="A&amp;I Respiratory Virus&#10;Review">
<path fill="none" stroke="#000000" stroke-width="1.5" d="M437.3059,-358.0507C442.844,-362.0697 448.3827,-366.4615 453.2544,-371 471.9946,-388.4586 466.1698,-404.905 489.2544,-416 559.222,-449.6282 649.227,-416.1518 703.9139,-388.4228"/>
<polygon fill="#000000" stroke="#000000" stroke-width="1.5" points="705.7791,-391.398 713.0397,-383.6822 702.5521,-385.1862 705.7791,-391.398"/>
</a>
</g>
</g>
<!-- 2 -->
<g id="node10" class="node">
<title>2</title>
<g id="a_node10"><a xlink:title="ai_prod.&#10;cov_wgs_long">
<polygon fill="#2e8b57" stroke="#000000" points="453.0832,-427.6017 357.7692,-427.6017 357.7692,-380.3983 453.0832,-380.3983 453.0832,-427.6017"/>
<text text-anchor="middle" x="405.4262" y="-408.2" font-family="Times,serif" font-size="14.00" fill="#fffafa">ai_prod.</text>
<text text-anchor="middle" x="405.4262" y="-391.4" font-family="Times,serif" font-size="14.00" fill="#fffafa">cov_wgs_long</text>
</a>
</g>
</g>
<!-- 3&#45;&gt;8 -->
<g id="edge8" class="edge">
<title>3&#45;&gt;8</title>
<g id="a_edge8"><a xlink:href="NA" xlink:title="A&amp;I Respiratory Virus&#10;Review">
<path fill="none" stroke="#000000" stroke-width="1.5" d="M615.9653,-330.1351C626.1959,-332.3664 637.0795,-334.7401 648.0671,-337.1366"/>
<polygon fill="#000000" stroke="#000000" stroke-width="1.5" points="647.6551,-340.6289 658.1713,-339.3403 649.1468,-333.7897 647.6551,-340.6289"/>
</a>
</g>
</g>
<!-- 5 -->
<g id="node13" class="node">
<title>5</title>
<g id="a_node13"><a xlink:title="ai_raw.&#10;wdrs_cov_wgs">
<polygon fill="#54ff9f" stroke="#000000" points="151.9484,-416.6017 53.9932,-416.6017 53.9932,-369.3983 151.9484,-369.3983 151.9484,-416.6017"/>
<text text-anchor="middle" x="102.9708" y="-397.2" font-family="Times,serif" font-size="14.00" fill="#000000">ai_raw.</text>
<text text-anchor="middle" x="102.9708" y="-380.4" font-family="Times,serif" font-size="14.00" fill="#000000">wdrs_cov_wgs</text>
</a>
</g>
</g>
<!-- 6 -->
<g id="node14" class="node">
<title>6</title>
<g id="a_node14"><a xlink:title="ai_staging.&#10;cov_wgs_long">
<polygon fill="#43cd80" stroke="#000000" points="321.4268,-388.6017 226.1128,-388.6017 226.1128,-341.3983 321.4268,-341.3983 321.4268,-388.6017"/>
<text text-anchor="middle" x="273.7698" y="-369.2" font-family="Times,serif" font-size="14.00" fill="#000000">ai_staging.</text>
<text text-anchor="middle" x="273.7698" y="-352.4" font-family="Times,serif" font-size="14.00" fill="#000000">cov_wgs_long</text>
</a>
</g>
</g>
<!-- 5&#45;&gt;6 -->
<g id="edge9" class="edge">
<title>5&#45;&gt;6</title>
<g id="a_edge9"><a xlink:href="https://github.com/PHSKC-Analytics-Informatics/Data_Pipeline/blob/main/Scripts%20-%20Data%20Sources/WGS%20COVID-19/04_staging_01_cov_wgs.R" xlink:title="04_staging_01_cov_wgs.R">
<path fill="none" stroke="#000000" stroke-width="1.5" d="M152.3729,-384.9012C172.2698,-381.6394 195.3577,-377.8545 216.0237,-374.4666"/>
<polygon fill="#000000" stroke="#000000" stroke-width="1.5" points="216.6476,-377.9112 225.9497,-372.8394 215.5151,-371.0034 216.6476,-377.9112"/>
</a>
</g>
</g>
<!-- 6&#45;&gt;1 -->
<g id="edge10" class="edge">
<title>6&#45;&gt;1</title>
<g id="a_edge10"><a xlink:href="https://github.com/PHSKC-Analytics-Informatics/Data_Pipeline/blob/main/Scripts%20-%20Data%20Sources/WGS%20COVID-19/05_prod_01_cov_wgs.R" xlink:title="05_prod_01_cov_wgs.R">
<path fill="none" stroke="#000000" stroke-width="1.5" d="M321.6732,-355.176C335.383,-352.3644 350.2156,-349.3226 363.5347,-346.5911"/>
<polygon fill="#000000" stroke="#000000" stroke-width="1.5" points="364.2883,-350.0095 373.3812,-344.5718 362.8819,-343.1522 364.2883,-350.0095"/>
</a>
</g>
</g>
<!-- 6&#45;&gt;2 -->
<g id="edge11" class="edge">
<title>6&#45;&gt;2</title>
<g id="a_edge11"><a xlink:href="https://github.com/PHSKC-Analytics-Informatics/Data_Pipeline/blob/main/Scripts%20-%20Data%20Sources/WGS%20COVID-19/05_prod_02_cov_wgs_long.R" xlink:title="05_prod_02_cov_wgs_long.R">
<path fill="none" stroke="#000000" stroke-width="1.5" d="M321.6732,-379.1902C330.1134,-381.6904 338.9792,-384.3167 347.6554,-386.8868"/>
<polygon fill="#000000" stroke="#000000" stroke-width="1.5" points="346.7555,-390.2705 357.3378,-389.755 348.7438,-383.5588 346.7555,-390.2705"/>
</a>
</g>
</g>
<!-- 7 -->
<g id="node15" class="node">
<title>7</title>
<g id="a_node15"><a xlink:title="ai_staging.&#10;gisaid_cov_meta">
<polygon fill="#43cd80" stroke="#000000" points="157.3363,-350.6017 48.6053,-350.6017 48.6053,-303.3983 157.3363,-303.3983 157.3363,-350.6017"/>
<text text-anchor="middle" x="102.9708" y="-331.2" font-family="Times,serif" font-size="14.00" fill="#000000">ai_staging.</text>
<text text-anchor="middle" x="102.9708" y="-314.4" font-family="Times,serif" font-size="14.00" fill="#000000">gisaid_cov_meta</text>
</a>
</g>
</g>
<!-- 7&#45;&gt;6 -->
<g id="edge12" class="edge">
<title>7&#45;&gt;6</title>
<g id="a_edge12"><a xlink:href="https://github.com/PHSKC-Analytics-Informatics/Data_Pipeline/blob/main/Scripts%20-%20Data%20Sources/WGS%20COVID-19/04_staging_01_cov_wgs.R" xlink:title="04_staging_01_cov_wgs.R">
<path fill="none" stroke="#000000" stroke-width="1.5" d="M157.4823,-339.1279C176.1849,-343.2889 197.1718,-347.9582 216.1152,-352.1728"/>
<polygon fill="#000000" stroke="#000000" stroke-width="1.5" points="215.5844,-355.6402 226.1058,-354.3955 217.1047,-348.8073 215.5844,-355.6402"/>
</a>
</g>
</g>
</g>
</svg>

