<?xml version="1.0" encoding="UTF-8" standalone="no"?>
<!DOCTYPE svg PUBLIC "-//W3C//DTD SVG 1.1//EN"
 "http://www.w3.org/Graphics/SVG/1.1/DTD/svg11.dtd">
<!-- Generated by graphviz version 2.40.1 (20161225.0304)
 -->
<!-- Pages: 1 -->
<svg width="887pt" height="419pt"
 viewBox="0.00 0.00 887.38 419.00" xmlns="http://www.w3.org/2000/svg" xmlns:xlink="http://www.w3.org/1999/xlink">
<g id="graph0" class="graph" transform="scale(1 1) rotate(0) translate(4 415)">
<polygon fill="#ffffff" stroke="transparent" points="-4,4 -4,-415 883.383,-415 883.383,4 -4,4"/>
<g id="clust1" class="cluster">
<title>cluster_legend</title>
<polygon fill="#ffffff" stroke="#ffffff" points="292.2027,-8 292.2027,-167 582.3942,-167 582.3942,-8 292.2027,-8"/>
<text text-anchor="middle" x="437.2985" y="-130.6" font-family="Times,serif" font-size="36.00" fill="#000000">Color Legend</text>
</g>
<g id="clust2" class="cluster">
<title>cluster_main</title>
<polygon fill="none" stroke="transparent" points="0,-175 0,-403 879.383,-403 879.383,-175 0,-175"/>
<text text-anchor="middle" x="439.6915" y="-355.8" font-family="Times,serif" font-size="48.00" fill="#000000">Data Source: WDRS COVID&#45;19 Sequencing</text>
</g>
<!-- kc1 -->
<g id="node1" class="node">
<title>kc1</title>
<polygon fill="#7a8b8b" stroke="#000000" points="574.3942,-107 520.3942,-107 520.3942,-71 574.3942,-71 574.3942,-107"/>
</g>
<!-- k1 -->
<g id="node2" class="node">
<title>k1</title>
<text text-anchor="middle" x="372.2027" y="-81.8" font-family="Times,serif" font-size="24.00" fill="#000000">wdrs.lhj&#13;</text>
</g>
<!-- k1&#45;&gt;kc1 -->
<!-- kc2 -->
<g id="node3" class="node">
<title>kc2</title>
<polygon fill="#54ff9f" stroke="#000000" points="574.3942,-52 520.3942,-52 520.3942,-16 574.3942,-16 574.3942,-52"/>
</g>
<!-- k2 -->
<g id="node4" class="node">
<title>k2</title>
<text text-anchor="middle" x="372.2027" y="-26.8" font-family="Times,serif" font-size="24.00" fill="#000000">ai_raw&#13;</text>
</g>
<!-- k2&#45;&gt;kc2 -->
<!-- 1 -->
<g id="node5" class="node">
<title>1</title>
<g id="a_node5"><a xlink:title="ai_raw.&#10;wdrs_cov_wgs">
<polygon fill="#54ff9f" stroke="#000000" points="596.3718,-279.6017 498.4166,-279.6017 498.4166,-232.3983 596.3718,-232.3983 596.3718,-279.6017"/>
<text text-anchor="middle" x="547.3942" y="-260.2" font-family="Times,serif" font-size="14.00" fill="#000000">ai_raw.</text>
<text text-anchor="middle" x="547.3942" y="-243.4" font-family="Times,serif" font-size="14.00" fill="#000000">wdrs_cov_wgs</text>
</a>
</g>
</g>
<!-- 2 -->
<g id="node6" class="node">
<title>2</title>
<g id="a_node6"><a xlink:title="wdrs.&#10;lhj.&#10;vw_gcd_covid19_sequencing">
<polygon fill="#7a8b8b" stroke="#000000" points="462.6086,-329.4013 281.7968,-329.4013 281.7968,-264.5988 462.6086,-264.5988 462.6086,-329.4013"/>
<text text-anchor="middle" x="372.2027" y="-309.6" font-family="Times,serif" font-size="14.00" fill="#fffafa">wdrs.</text>
<text text-anchor="middle" x="372.2027" y="-292.8" font-family="Times,serif" font-size="14.00" fill="#fffafa">lhj.</text>
<text text-anchor="middle" x="372.2027" y="-276" font-family="Times,serif" font-size="14.00" fill="#fffafa">vw_gcd_covid19_sequencing</text>
</a>
</g>
</g>
<!-- 2&#45;&gt;1 -->
<g id="edge3" class="edge">
<title>2&#45;&gt;1</title>
<g id="a_edge3"><a xlink:href="https://github.com/PHSKC-Analytics-Informatics/Data_Pipeline/blob/main/Scripts%20-%20Data%20Sources/WDRS%20COVID-19%20Sequencing/03_raw_01_wdrs_cov_wgs.R" xlink:title="03_raw_01_wdrs_cov_wgs.R">
<path fill="none" stroke="#000000" stroke-width="1.5" d="M462.6209,-275.8395C471.3052,-273.8071 479.9525,-271.7834 488.2208,-269.8483"/>
<polygon fill="#000000" stroke="#000000" stroke-width="1.5" points="489.1561,-273.2241 498.0955,-267.5374 487.561,-266.4082 489.1561,-273.2241"/>
</a>
</g>
</g>
<!-- 3 -->
<g id="node7" class="node">
<title>3</title>
<g id="a_node7"><a xlink:title="wdrs.&#10;lhj.&#10;vw_gcd_covid_19_flattened">
<polygon fill="#7a8b8b" stroke="#000000" points="459.1058,-247.4013 285.2996,-247.4013 285.2996,-182.5988 459.1058,-182.5988 459.1058,-247.4013"/>
<text text-anchor="middle" x="372.2027" y="-227.6" font-family="Times,serif" font-size="14.00" fill="#fffafa">wdrs.</text>
<text text-anchor="middle" x="372.2027" y="-210.8" font-family="Times,serif" font-size="14.00" fill="#fffafa">lhj.</text>
<text text-anchor="middle" x="372.2027" y="-194" font-family="Times,serif" font-size="14.00" fill="#fffafa">vw_gcd_covid_19_flattened</text>
</a>
</g>
</g>
<!-- 3&#45;&gt;1 -->
<g id="edge4" class="edge">
<title>3&#45;&gt;1</title>
<g id="a_edge4"><a xlink:href="https://github.com/PHSKC-Analytics-Informatics/Data_Pipeline/blob/main/Scripts%20-%20Data%20Sources/WDRS%20COVID-19%20Sequencing/03_raw_01_wdrs_cov_wgs.R" xlink:title="03_raw_01_wdrs_cov_wgs.R">
<path fill="none" stroke="#000000" stroke-width="1.5" d="M459.0286,-235.3198C468.8856,-237.6267 478.7557,-239.9366 488.1395,-242.1326"/>
<polygon fill="#000000" stroke="#000000" stroke-width="1.5" points="487.5728,-245.5945 498.1073,-244.4654 489.168,-238.7787 487.5728,-245.5945"/>
</a>
</g>
</g>
</g>
</svg>

