<?xml version="1.0" encoding="UTF-8" standalone="no"?>
<!DOCTYPE svg PUBLIC "-//W3C//DTD SVG 1.1//EN"
 "http://www.w3.org/Graphics/SVG/1.1/DTD/svg11.dtd">
<!-- Generated by graphviz version 2.40.1 (20161225.0304)
 -->
<!-- Pages: 1 -->
<svg width="1803pt" height="1030pt"
 viewBox="0.00 0.00 1803.04 1030.00" xmlns="http://www.w3.org/2000/svg" xmlns:xlink="http://www.w3.org/1999/xlink">
<g id="graph0" class="graph" transform="scale(1 1) rotate(0) translate(4 1026)">
<polygon fill="#ffffff" stroke="transparent" points="-4,4 -4,-1026 1799.0424,-1026 1799.0424,4 -4,4"/>
<g id="clust1" class="cluster">
<title>cluster_legend</title>
<polygon fill="#ffffff" stroke="#ffffff" points="8,-8 8,-442 366.8936,-442 366.8936,-8 8,-8"/>
<text text-anchor="middle" x="187.4468" y="-405.6" font-family="Times,serif" font-size="36.00" fill="#000000">Color Legend</text>
</g>
<g id="clust2" class="cluster">
<title>cluster_main</title>
<polygon fill="none" stroke="transparent" points="16.2383,-450 16.2383,-1014 1787.0424,-1014 1787.0424,-450 16.2383,-450"/>
<text text-anchor="middle" x="901.6404" y="-966.8" font-family="Times,serif" font-size="48.00" fill="#000000">Data Source: IIS COVID&#45;19 Immunization</text>
</g>
<!-- kc1 -->
<g id="node1" class="node">
<title>kc1</title>
<polygon fill="#009acd" stroke="#000000" points="358.8936,-382 304.8936,-382 304.8936,-346 358.8936,-346 358.8936,-382"/>
</g>
<!-- k1 -->
<g id="node2" class="node">
<title>k1</title>
<text text-anchor="middle" x="102.9708" y="-356.8" font-family="Times,serif" font-size="24.00" fill="#000000">url&#13;</text>
</g>
<!-- k1&#45;&gt;kc1 -->
<!-- kc2 -->
<g id="node3" class="node">
<title>kc2</title>
<polygon fill="#cccccc" stroke="#000000" points="358.8936,-327 304.8936,-327 304.8936,-291 358.8936,-291 358.8936,-327"/>
</g>
<!-- k2 -->
<g id="node4" class="node">
<title>k2</title>
<text text-anchor="middle" x="102.9708" y="-301.8" font-family="Times,serif" font-size="24.00" fill="#000000">file&#13;</text>
</g>
<!-- k2&#45;&gt;kc2 -->
<!-- kc3 -->
<g id="node5" class="node">
<title>kc3</title>
<polygon fill="#191970" stroke="#000000" points="358.8936,-272 304.8936,-272 304.8936,-236 358.8936,-236 358.8936,-272"/>
</g>
<!-- k3 -->
<g id="node6" class="node">
<title>k3</title>
<text text-anchor="middle" x="102.9708" y="-246.8" font-family="Times,serif" font-size="24.00" fill="#000000">reports_public&#13;</text>
</g>
<!-- k3&#45;&gt;kc3 -->
<!-- kc4 -->
<g id="node7" class="node">
<title>kc4</title>
<polygon fill="#27408b" stroke="#000000" points="358.8936,-217 304.8936,-217 304.8936,-181 358.8936,-181 358.8936,-217"/>
</g>
<!-- k4 -->
<g id="node8" class="node">
<title>k4</title>
<text text-anchor="middle" x="102.9708" y="-191.8" font-family="Times,serif" font-size="24.00" fill="#000000">reports_internal&#13;</text>
</g>
<!-- k4&#45;&gt;kc4 -->
<!-- kc5 -->
<g id="node9" class="node">
<title>kc5</title>
<polygon fill="#54ff9f" stroke="#000000" points="358.8936,-162 304.8936,-162 304.8936,-126 358.8936,-126 358.8936,-162"/>
</g>
<!-- k5 -->
<g id="node10" class="node">
<title>k5</title>
<text text-anchor="middle" x="102.9708" y="-136.8" font-family="Times,serif" font-size="24.00" fill="#000000">ai_raw&#13;</text>
</g>
<!-- k5&#45;&gt;kc5 -->
<!-- kc6 -->
<g id="node11" class="node">
<title>kc6</title>
<polygon fill="#43cd80" stroke="#000000" points="358.8936,-107 304.8936,-107 304.8936,-71 358.8936,-71 358.8936,-107"/>
</g>
<!-- k6 -->
<g id="node12" class="node">
<title>k6</title>
<text text-anchor="middle" x="102.9708" y="-81.8" font-family="Times,serif" font-size="24.00" fill="#000000">ai_staging&#13;</text>
</g>
<!-- k6&#45;&gt;kc6 -->
<!-- kc7 -->
<g id="node13" class="node">
<title>kc7</title>
<polygon fill="#2e8b57" stroke="#000000" points="358.8936,-52 304.8936,-52 304.8936,-16 358.8936,-16 358.8936,-52"/>
</g>
<!-- k7 -->
<g id="node14" class="node">
<title>k7</title>
<text text-anchor="middle" x="102.9708" y="-26.8" font-family="Times,serif" font-size="24.00" fill="#000000">ai_prod&#13;</text>
</g>
<!-- k7&#45;&gt;kc7 -->
<!-- 1 -->
<g id="node15" class="node">
<title>1</title>
<g id="a_node15"><a xlink:title="ai_prod.&#10;iis_cov_age_race_geo">
<polygon fill="#2e8b57" stroke="#000000" points="1222.7777,-731.6017 1083.9995,-731.6017 1083.9995,-684.3983 1222.7777,-684.3983 1222.7777,-731.6017"/>
<text text-anchor="middle" x="1153.3886" y="-712.2" font-family="Times,serif" font-size="14.00" fill="#fffafa">ai_prod.</text>
<text text-anchor="middle" x="1153.3886" y="-695.4" font-family="Times,serif" font-size="14.00" fill="#fffafa">iis_cov_age_race_geo</text>
</a>
</g>
</g>
<!-- 2 -->
<g id="node16" class="node">
<title>2</title>
<g id="a_node16"><a xlink:title="ai_prod.&#10;iis_cov_age_race_geo_long">
<polygon fill="#2e8b57" stroke="#000000" points="1447.6828,-707.6017 1277.124,-707.6017 1277.124,-660.3983 1447.6828,-660.3983 1447.6828,-707.6017"/>
<text text-anchor="middle" x="1362.4034" y="-688.2" font-family="Times,serif" font-size="14.00" fill="#fffafa">ai_prod.</text>
<text text-anchor="middle" x="1362.4034" y="-671.4" font-family="Times,serif" font-size="14.00" fill="#fffafa">iis_cov_age_race_geo_long</text>
</a>
</g>
</g>
<!-- 1&#45;&gt;2 -->
<g id="edge8" class="edge">
<title>1&#45;&gt;2</title>
<g id="a_edge8"><a xlink:href="https://github.com/PHSKC-Analytics-Informatics/Data_Pipeline/blob/main/Scripts%20-%20Data%20Sources/IIS%20COVID-19%20Immunization/05_prod_03_pub_age_re_geo.R" xlink:title="05_prod_03_pub_age_re_geo.R">
<path fill="none" stroke="#000000" stroke-width="1.5" d="M1222.6972,-700.0417C1236.7937,-698.4231 1251.8576,-696.6934 1266.684,-694.9909"/>
<polygon fill="#000000" stroke="#000000" stroke-width="1.5" points="1267.3602,-698.4364 1276.8956,-693.8184 1266.5616,-691.4821 1267.3602,-698.4364"/>
</a>
</g>
</g>
<!-- 26 -->
<g id="node40" class="node">
<title>26</title>
<g id="a_node40"><a xlink:title="reports_internal&#10;Respiratory Virus Immunization Summary Report">
<polygon fill="#27408b" stroke="#000000" points="1779.2925,-838.6017 1483.2929,-838.6017 1483.2929,-791.3983 1779.2925,-791.3983 1779.2925,-838.6017"/>
<text text-anchor="middle" x="1631.2927" y="-819.2" font-family="Times,serif" font-size="14.00" fill="#fffafa">reports_internal</text>
<text text-anchor="middle" x="1631.2927" y="-802.4" font-family="Times,serif" font-size="14.00" fill="#fffafa">Respiratory Virus Immunization Summary Report</text>
</a>
</g>
</g>
<!-- 2&#45;&gt;26 -->
<g id="edge10" class="edge">
<title>2&#45;&gt;26</title>
<g id="a_edge10"><a xlink:href="NA" xlink:title="Respiratory Virus&#10;Immunization Summary&#10;Report">
<path fill="none" stroke="#000000" stroke-width="1.5" d="M1411.0972,-707.7231C1456.7362,-729.958 1525.0018,-763.2162 1573.4073,-786.7989"/>
<polygon fill="#000000" stroke="#000000" stroke-width="1.5" points="1571.9847,-789.999 1582.5076,-791.2324 1575.0506,-783.7061 1571.9847,-789.999"/>
</a>
</g>
</g>
<!-- 27 -->
<g id="node41" class="node">
<title>27</title>
<g id="a_node41"><a xlink:title="reports_public&#10;COVID Vaccine Website Content">
<polygon fill="#191970" stroke="#000000" points="1733.6673,-674.6017 1528.9181,-674.6017 1528.9181,-627.3983 1733.6673,-627.3983 1733.6673,-674.6017"/>
<text text-anchor="middle" x="1631.2927" y="-655.2" font-family="Times,serif" font-size="14.00" fill="#fffafa">reports_public</text>
<text text-anchor="middle" x="1631.2927" y="-638.4" font-family="Times,serif" font-size="14.00" fill="#fffafa">COVID Vaccine Website Content</text>
</a>
</g>
</g>
<!-- 2&#45;&gt;27 -->
<g id="edge9" class="edge">
<title>2&#45;&gt;27</title>
<g id="a_edge9"><a xlink:href="NA" xlink:title="COVID Vaccine Website&#10;Content">
<path fill="none" stroke="#000000" stroke-width="1.5" d="M1447.8511,-673.5133C1470.322,-670.7555 1494.9085,-667.738 1518.5725,-664.8338"/>
<polygon fill="#000000" stroke="#000000" stroke-width="1.5" points="1519.1498,-668.2893 1528.649,-663.5972 1518.2971,-661.3414 1519.1498,-668.2893"/>
</a>
</g>
</g>
<!-- 3 -->
<g id="node17" class="node">
<title>3</title>
<g id="a_node17"><a xlink:title="ai_prod.&#10;iis_cov_agg_doses_table">
<polygon fill="#2e8b57" stroke="#000000" points="1439.3726,-575.6017 1285.4342,-575.6017 1285.4342,-528.3983 1439.3726,-528.3983 1439.3726,-575.6017"/>
<text text-anchor="middle" x="1362.4034" y="-556.2" font-family="Times,serif" font-size="14.00" fill="#fffafa">ai_prod.</text>
<text text-anchor="middle" x="1362.4034" y="-539.4" font-family="Times,serif" font-size="14.00" fill="#fffafa">iis_cov_agg_doses_table</text>
</a>
</g>
</g>
<!-- 3&#45;&gt;26 -->
<g id="edge12" class="edge">
<title>3&#45;&gt;26</title>
<g id="a_edge12"><a xlink:href="NA" xlink:title="Respiratory Virus&#10;Immunization Summary&#10;Report">
<path fill="none" stroke="#000000" stroke-width="1.5" d="M1436.5298,-575.8019C1440.4989,-578.5473 1444.2156,-581.602 1447.543,-585 1480.2995,-618.4517 1457.2196,-645.2821 1483.543,-684 1511.3215,-724.8582 1554.6505,-761.2312 1587.2169,-785.2196"/>
<polygon fill="#000000" stroke="#000000" stroke-width="1.5" points="1585.5202,-788.3125 1595.6709,-791.3482 1589.6288,-782.6451 1585.5202,-788.3125"/>
</a>
</g>
</g>
<!-- 3&#45;&gt;27 -->
<g id="edge11" class="edge">
<title>3&#45;&gt;27</title>
<g id="a_edge11"><a xlink:href="NA" xlink:title="COVID Vaccine Website&#10;Content">
<path fill="none" stroke="#000000" stroke-width="1.5" d="M1426.8091,-575.713C1466.1594,-590.201 1516.6158,-608.7781 1557.5616,-623.8536"/>
<polygon fill="#000000" stroke="#000000" stroke-width="1.5" points="1556.3536,-627.1385 1566.9471,-627.3092 1558.7722,-620.5696 1556.3536,-627.1385"/>
</a>
</g>
</g>
<!-- 4 -->
<g id="node18" class="node">
<title>4</title>
<g id="a_node18"><a xlink:title="ai_prod.&#10;iis_cov_complete_bydate">
<polygon fill="#2e8b57" stroke="#000000" points="1440.9792,-641.6017 1283.8276,-641.6017 1283.8276,-594.3983 1440.9792,-594.3983 1440.9792,-641.6017"/>
<text text-anchor="middle" x="1362.4034" y="-622.2" font-family="Times,serif" font-size="14.00" fill="#fffafa">ai_prod.</text>
<text text-anchor="middle" x="1362.4034" y="-605.4" font-family="Times,serif" font-size="14.00" fill="#fffafa">iis_cov_complete_bydate</text>
</a>
</g>
</g>
<!-- 4&#45;&gt;26 -->
<g id="edge14" class="edge">
<title>4&#45;&gt;26</title>
<g id="a_edge14"><a xlink:href="NA" xlink:title="Respiratory Virus&#10;Immunization Summary&#10;Report">
<path fill="none" stroke="#000000" stroke-width="1.5" d="M1430.4528,-641.6886C1436.3748,-644.5479 1442.1566,-647.654 1447.543,-651 1465.9803,-662.4532 1467.4221,-669.4664 1483.543,-684 1521.9917,-718.663 1566.4896,-758.0134 1596.5223,-784.4606"/>
<polygon fill="#000000" stroke="#000000" stroke-width="1.5" points="1594.3934,-787.2494 1604.2125,-791.229 1599.0183,-781.9948 1594.3934,-787.2494"/>
</a>
</g>
</g>
<!-- 4&#45;&gt;27 -->
<g id="edge13" class="edge">
<title>4&#45;&gt;27</title>
<g id="a_edge13"><a xlink:href="NA" xlink:title="COVID Vaccine Website&#10;Content">
<path fill="none" stroke="#000000" stroke-width="1.5" d="M1441.2622,-627.6781C1465.3397,-630.6331 1492.3041,-633.9423 1518.1858,-637.1187"/>
<polygon fill="#000000" stroke="#000000" stroke-width="1.5" points="1518.0743,-640.6312 1528.4262,-638.3755 1518.9271,-633.6833 1518.0743,-640.6312"/>
</a>
</g>
</g>
<!-- 5 -->
<g id="node19" class="node">
<title>5</title>
<g id="a_node19"><a xlink:title="ai_prod.&#10;iis_cov_doses_by_org">
<polygon fill="#2e8b57" stroke="#000000" points="1223.0936,-940.6017 1083.6836,-940.6017 1083.6836,-893.3983 1223.0936,-893.3983 1223.0936,-940.6017"/>
<text text-anchor="middle" x="1153.3886" y="-921.2" font-family="Times,serif" font-size="14.00" fill="#fffafa">ai_prod.</text>
<text text-anchor="middle" x="1153.3886" y="-904.4" font-family="Times,serif" font-size="14.00" fill="#fffafa">iis_cov_doses_by_org</text>
</a>
</g>
</g>
<!-- 5&#45;&gt;26 -->
<g id="edge15" class="edge">
<title>5&#45;&gt;26</title>
<g id="a_edge15"><a xlink:href="NA" xlink:title="Respiratory Virus&#10;Immunization Summary&#10;Report">
<path fill="none" stroke="#000000" stroke-width="1.5" d="M1223.2565,-925.2052C1283.6393,-930.1452 1372.7303,-932.2445 1447.543,-913 1499.9964,-899.5071 1553.9823,-868.2475 1589.7456,-844.6349"/>
<polygon fill="#000000" stroke="#000000" stroke-width="1.5" points="1592.0752,-847.2869 1598.4333,-838.8119 1588.1778,-841.4722 1592.0752,-847.2869"/>
</a>
</g>
</g>
<!-- 6 -->
<g id="node20" class="node">
<title>6</title>
<g id="a_node20"><a xlink:title="ai_prod.&#10;iis_cov_vax_status_bydate">
<polygon fill="#2e8b57" stroke="#000000" points="1235.7485,-808.6017 1071.0287,-808.6017 1071.0287,-761.3983 1235.7485,-761.3983 1235.7485,-808.6017"/>
<text text-anchor="middle" x="1153.3886" y="-789.2" font-family="Times,serif" font-size="14.00" fill="#fffafa">ai_prod.</text>
<text text-anchor="middle" x="1153.3886" y="-772.4" font-family="Times,serif" font-size="14.00" fill="#fffafa">iis_cov_vax_status_bydate</text>
</a>
</g>
</g>
<!-- 7 -->
<g id="node21" class="node">
<title>7</title>
<g id="a_node21"><a xlink:title="ai_prod.&#10;iis_cov_vax_status_overall">
<polygon fill="#2e8b57" stroke="#000000" points="1445.8149,-875.6017 1278.9919,-875.6017 1278.9919,-828.3983 1445.8149,-828.3983 1445.8149,-875.6017"/>
<text text-anchor="middle" x="1362.4034" y="-856.2" font-family="Times,serif" font-size="14.00" fill="#fffafa">ai_prod.</text>
<text text-anchor="middle" x="1362.4034" y="-839.4" font-family="Times,serif" font-size="14.00" fill="#fffafa">iis_cov_vax_status_overall</text>
</a>
</g>
</g>
<!-- 6&#45;&gt;7 -->
<g id="edge16" class="edge">
<title>6&#45;&gt;7</title>
<g id="a_edge16"><a xlink:href="https://github.com/PHSKC-Analytics-Informatics/Data_Pipeline/blob/main/Scripts%20-%20Data%20Sources/IIS%20COVID-19%20Immunization/05_prod_01_pub_vax_status.R" xlink:title="05_prod_01_pub_vax_status.R">
<path fill="none" stroke="#000000" stroke-width="1.5" d="M1227.0794,-808.6217C1243.7819,-813.9757 1261.6376,-819.6994 1278.7198,-825.1751"/>
<polygon fill="#000000" stroke="#000000" stroke-width="1.5" points="1278.0824,-828.6462 1288.6735,-828.3658 1280.2192,-821.9802 1278.0824,-828.6462"/>
</a>
</g>
</g>
<!-- 6&#45;&gt;26 -->
<g id="edge18" class="edge">
<title>6&#45;&gt;26</title>
<g id="a_edge18"><a xlink:href="NA" xlink:title="Respiratory Virus&#10;Immunization Summary&#10;Report">
<path fill="none" stroke="#000000" stroke-width="1.5" d="M1228.471,-808.6976C1233.0207,-811.4772 1237.3381,-814.5673 1241.2638,-818 1266.7115,-840.2515 1248.2502,-867.6528 1277.2638,-885 1375.2448,-943.5827 1513.0955,-883.3126 1584.4262,-843.6987"/>
<polygon fill="#000000" stroke="#000000" stroke-width="1.5" points="1586.2194,-846.7057 1593.2052,-838.7402 1582.7768,-840.6107 1586.2194,-846.7057"/>
</a>
</g>
</g>
<!-- 6&#45;&gt;27 -->
<g id="edge17" class="edge">
<title>6&#45;&gt;27</title>
<g id="a_edge17"><a xlink:href="NA" xlink:title="COVID Vaccine Website&#10;Content">
<path fill="none" stroke="#000000" stroke-width="1.5" d="M1205.7868,-761.3132C1227.5026,-752.3936 1253.2,-742.9729 1277.2638,-737 1351.2195,-718.6433 1373.365,-734.4368 1447.543,-717 1487.8084,-707.5349 1531.4377,-692.0972 1566.075,-678.5313"/>
<polygon fill="#000000" stroke="#000000" stroke-width="1.5" points="1567.5869,-681.6971 1575.5959,-674.7612 1565.0097,-675.1888 1567.5869,-681.6971"/>
</a>
</g>
</g>
<!-- 7&#45;&gt;26 -->
<g id="edge19" class="edge">
<title>7&#45;&gt;26</title>
<g id="a_edge19"><a xlink:href="NA" xlink:title="Respiratory Virus&#10;Immunization Summary&#10;Report">
<path fill="none" stroke="#000000" stroke-width="1.5" d="M1445.6402,-840.5464C1454.4752,-839.3306 1463.657,-838.0672 1472.9975,-836.7819"/>
<polygon fill="#000000" stroke="#000000" stroke-width="1.5" points="1473.7568,-840.2105 1483.1863,-835.3799 1472.8025,-833.2758 1473.7568,-840.2105"/>
</a>
</g>
</g>
<!-- 8 -->
<g id="node22" class="node">
<title>8</title>
<g id="a_node22"><a xlink:title="ai_prod.&#10;iis_cov_vax_status_uptodate">
<polygon fill="#2e8b57" stroke="#000000" points="1241.1392,-874.6017 1065.638,-874.6017 1065.638,-827.3983 1241.1392,-827.3983 1241.1392,-874.6017"/>
<text text-anchor="middle" x="1153.3886" y="-855.2" font-family="Times,serif" font-size="14.00" fill="#fffafa">ai_prod.</text>
<text text-anchor="middle" x="1153.3886" y="-838.4" font-family="Times,serif" font-size="14.00" fill="#fffafa">iis_cov_vax_status_uptodate</text>
</a>
</g>
</g>
<!-- 8&#45;&gt;26 -->
<g id="edge20" class="edge">
<title>8&#45;&gt;26</title>
<g id="a_edge20"><a xlink:href="NA" xlink:title="Respiratory Virus&#10;Immunization Summary&#10;Report">
<path fill="none" stroke="#000000" stroke-width="1.5" d="M1218.9553,-874.7589C1226.5241,-877.7562 1234.0943,-880.8716 1241.2638,-884 1257.6595,-891.1542 1259.8538,-897.8901 1277.2638,-902 1350.9189,-919.3876 1373.7056,-918.5967 1447.543,-902 1497.2262,-890.8325 1549.2702,-864.6203 1585.2343,-843.8677"/>
<polygon fill="#000000" stroke="#000000" stroke-width="1.5" points="1587.1601,-846.796 1594.02,-838.7218 1583.6222,-840.7558 1587.1601,-846.796"/>
</a>
</g>
</g>
<!-- 9 -->
<g id="node23" class="node">
<title>9</title>
<g id="a_node23"><a xlink:title="ai_raw.&#10;iis_cov_clean">
<polygon fill="#54ff9f" stroke="#000000" points="594.9421,-571.6017 503.9925,-571.6017 503.9925,-524.3983 594.9421,-524.3983 594.9421,-571.6017"/>
<text text-anchor="middle" x="549.4673" y="-552.2" font-family="Times,serif" font-size="14.00" fill="#000000">ai_raw.</text>
<text text-anchor="middle" x="549.4673" y="-535.4" font-family="Times,serif" font-size="14.00" fill="#000000">iis_cov_clean</text>
</a>
</g>
</g>
<!-- 11 -->
<g id="node25" class="node">
<title>11</title>
<g id="a_node25"><a xlink:title="ai_staging.&#10;iis_cov_doses">
<polygon fill="#43cd80" stroke="#000000" points="753.4064,-768.6017 661.3158,-768.6017 661.3158,-721.3983 753.4064,-721.3983 753.4064,-768.6017"/>
<text text-anchor="middle" x="707.3611" y="-749.2" font-family="Times,serif" font-size="14.00" fill="#000000">ai_staging.</text>
<text text-anchor="middle" x="707.3611" y="-732.4" font-family="Times,serif" font-size="14.00" fill="#000000">iis_cov_doses</text>
</a>
</g>
</g>
<!-- 9&#45;&gt;11 -->
<g id="edge21" class="edge">
<title>9&#45;&gt;11</title>
<g id="a_edge21"><a xlink:href="https://github.com/PHSKC-Analytics-Informatics/Data_Pipeline/blob/main/Scripts%20-%20Data%20Sources/IIS%20COVID-19%20Immunization/04_staging_01_doses.R" xlink:title="04_staging_01_doses.R">
<path fill="none" stroke="#000000" stroke-width="1.5" d="M594.9683,-561.8126C605.7417,-566.6297 616.5641,-572.9195 625.089,-581 663.3377,-617.2552 686.5106,-675.1462 698.1187,-711.5654"/>
<polygon fill="#000000" stroke="#000000" stroke-width="1.5" points="694.8061,-712.7013 701.089,-721.2322 701.4974,-710.6452 694.8061,-712.7013"/>
</a>
</g>
</g>
<!-- 10 -->
<g id="node24" class="node">
<title>10</title>
<g id="a_node24"><a xlink:title="ai_staging.&#10;iis_cov_demo">
<polygon fill="#43cd80" stroke="#000000" points="595.514,-505.6017 503.4206,-505.6017 503.4206,-458.3983 595.514,-458.3983 595.514,-505.6017"/>
<text text-anchor="middle" x="549.4673" y="-486.2" font-family="Times,serif" font-size="14.00" fill="#000000">ai_staging.</text>
<text text-anchor="middle" x="549.4673" y="-469.4" font-family="Times,serif" font-size="14.00" fill="#000000">iis_cov_demo</text>
</a>
</g>
</g>
<!-- 11&#45;&gt;3 -->
<g id="edge23" class="edge">
<title>11&#45;&gt;3</title>
<g id="a_edge23"><a xlink:href="https://github.com/PHSKC-Analytics-Informatics/Data_Pipeline/blob/main/Scripts%20-%20Data%20Sources/IIS%20COVID-19%20Immunization/05_prod_02_pub_dose_tables.R" xlink:title="05_prod_02_pub_dose_tables.R">
<path fill="none" stroke="#000000" stroke-width="1.5" d="M712.3426,-721.1868C721.1415,-685.7623 743.0883,-620.1325 789.6332,-590 937.9297,-493.995 1155.4851,-512.7265 1275.2773,-533.3293"/>
<polygon fill="#000000" stroke="#000000" stroke-width="1.5" points="1274.6889,-536.7795 1285.1447,-535.0688 1275.9043,-529.8858 1274.6889,-536.7795"/>
</a>
</g>
</g>
<!-- 11&#45;&gt;4 -->
<g id="edge24" class="edge">
<title>11&#45;&gt;4</title>
<g id="a_edge24"><a xlink:href="https://github.com/PHSKC-Analytics-Informatics/Data_Pipeline/blob/main/Scripts%20-%20Data%20Sources/IIS%20COVID-19%20Immunization/05_prod_02_pub_dose_tables.R" xlink:title="05_prod_02_pub_dose_tables.R">
<path fill="none" stroke="#000000" stroke-width="1.5" d="M720.8358,-721.1007C734.8461,-698.8366 759.0072,-666.9041 789.6332,-652 946.2949,-575.7607 1156.2473,-587.8262 1273.5463,-603.1215"/>
<polygon fill="#000000" stroke="#000000" stroke-width="1.5" points="1273.1863,-606.6045 1283.5629,-604.465 1274.1169,-599.6666 1273.1863,-606.6045"/>
</a>
</g>
</g>
<!-- 11&#45;&gt;5 -->
<g id="edge25" class="edge">
<title>11&#45;&gt;5</title>
<g id="a_edge25"><a xlink:href="https://github.com/PHSKC-Analytics-Informatics/Data_Pipeline/blob/main/Scripts%20-%20Data%20Sources/IIS%20COVID-19%20Immunization/05_prod_02_pub_dose_tables.R" xlink:title="05_prod_02_pub_dose_tables.R">
<path fill="none" stroke="#000000" stroke-width="1.5" d="M712.5205,-768.7199C721.503,-803.6292 743.6298,-867.8493 789.6332,-897 874.763,-950.9437 994.8479,-945.4823 1073.3903,-933.6687"/>
<polygon fill="#000000" stroke="#000000" stroke-width="1.5" points="1074.3773,-937.0565 1083.7113,-932.0438 1073.2887,-930.1416 1074.3773,-937.0565"/>
</a>
</g>
</g>
<!-- 12 -->
<g id="node26" class="node">
<title>12</title>
<g id="a_node26"><a xlink:title="ai_staging.&#10;iis_cov_recipients">
<polygon fill="#43cd80" stroke="#000000" points="967.4346,-887.6017 851.712,-887.6017 851.712,-840.3983 967.4346,-840.3983 967.4346,-887.6017"/>
<text text-anchor="middle" x="909.5733" y="-868.2" font-family="Times,serif" font-size="14.00" fill="#000000">ai_staging.</text>
<text text-anchor="middle" x="909.5733" y="-851.4" font-family="Times,serif" font-size="14.00" fill="#000000">iis_cov_recipients</text>
</a>
</g>
</g>
<!-- 11&#45;&gt;12 -->
<g id="edge22" class="edge">
<title>11&#45;&gt;12</title>
<g id="a_edge22"><a xlink:href="https://github.com/PHSKC-Analytics-Informatics/Data_Pipeline/blob/main/Scripts%20-%20Data%20Sources/IIS%20COVID-19%20Immunization/04_staging_03_recipients.R" xlink:title="04_staging_03_recipients.R">
<path fill="none" stroke="#000000" stroke-width="1.5" d="M724.307,-768.8543C739.3468,-788.3217 763.0182,-815.1177 789.6332,-831 805.4375,-840.4311 824.0107,-847.2401 841.758,-852.1276"/>
<polygon fill="#000000" stroke="#000000" stroke-width="1.5" points="840.952,-855.5342 851.5098,-854.6496 842.7047,-848.7572 840.952,-855.5342"/>
</a>
</g>
</g>
<!-- 12&#45;&gt;1 -->
<g id="edge28" class="edge">
<title>12&#45;&gt;1</title>
<g id="a_edge28"><a xlink:href="https://github.com/PHSKC-Analytics-Informatics/Data_Pipeline/blob/main/Scripts%20-%20Data%20Sources/IIS%20COVID-19%20Immunization/05_prod_03_pub_age_re_geo.R" xlink:title="05_prod_03_pub_age_re_geo.R">
<path fill="none" stroke="#000000" stroke-width="1.5" d="M967.52,-858.454C988.9769,-853.9046 1012.2552,-845.7099 1029.5134,-831 1058.8787,-805.9706 1038.7341,-779.7788 1065.5134,-752 1070.7236,-746.5953 1076.7388,-741.7487 1083.1282,-737.4279"/>
<polygon fill="#000000" stroke="#000000" stroke-width="1.5" points="1085.4102,-740.129 1092.0327,-731.8589 1081.6983,-734.1941 1085.4102,-740.129"/>
</a>
</g>
</g>
<!-- 12&#45;&gt;6 -->
<g id="edge27" class="edge">
<title>12&#45;&gt;6</title>
<g id="a_edge27"><a xlink:href="https://github.com/PHSKC-Analytics-Informatics/Data_Pipeline/blob/main/Scripts%20-%20Data%20Sources/IIS%20COVID-19%20Immunization/05_prod_01_pub_vax_status.R" xlink:title="05_prod_01_pub_vax_status.R">
<path fill="none" stroke="#000000" stroke-width="1.5" d="M967.5261,-849.148C987.3004,-843.7913 1009.4734,-837.4642 1029.5134,-831 1035.2476,-829.1503 1057.1365,-821.0722 1080.9557,-812.1891"/>
<polygon fill="#000000" stroke="#000000" stroke-width="1.5" points="1082.366,-815.3986 1090.51,-808.6217 1079.9174,-808.8408 1082.366,-815.3986"/>
</a>
</g>
</g>
<!-- 12&#45;&gt;8 -->
<g id="edge26" class="edge">
<title>12&#45;&gt;8</title>
<g id="a_edge26"><a xlink:href="https://github.com/PHSKC-Analytics-Informatics/Data_Pipeline/blob/main/Scripts%20-%20Data%20Sources/IIS%20COVID-19%20Immunization/05_prod_01_pub_vax_status.R" xlink:title="05_prod_01_pub_vax_status.R">
<path fill="none" stroke="#000000" stroke-width="1.5" d="M967.6634,-860.9027C993.8583,-859.506 1025.528,-857.8174 1055.239,-856.2332"/>
<polygon fill="#000000" stroke="#000000" stroke-width="1.5" points="1055.4296,-859.7281 1065.229,-855.7006 1055.0568,-852.7381 1055.4296,-859.7281"/>
</a>
</g>
</g>
<!-- 13 -->
<g id="node27" class="node">
<title>13</title>
<g id="a_node27"><a xlink:title="ai_staging.&#10;table_update_log_view">
<polygon fill="#43cd80" stroke="#000000" points="1434.5365,-509.6017 1290.2703,-509.6017 1290.2703,-462.3983 1434.5365,-462.3983 1434.5365,-509.6017"/>
<text text-anchor="middle" x="1362.4034" y="-490.2" font-family="Times,serif" font-size="14.00" fill="#000000">ai_staging.</text>
<text text-anchor="middle" x="1362.4034" y="-473.4" font-family="Times,serif" font-size="14.00" fill="#000000">table_update_log_view</text>
</a>
</g>
</g>
<!-- 13&#45;&gt;27 -->
<g id="edge29" class="edge">
<title>13&#45;&gt;27</title>
<g id="a_edge29"><a xlink:href="NA" xlink:title="COVID Vaccine Website&#10;Content">
<path fill="none" stroke="#000000" stroke-width="1.5" d="M1428.6951,-509.7777C1435.1665,-512.667 1441.549,-515.7537 1447.543,-519 1502.0613,-548.5262 1559.2067,-591.825 1595.0129,-620.6872"/>
<polygon fill="#000000" stroke="#000000" stroke-width="1.5" points="1593.2314,-623.7492 1603.2007,-627.3358 1597.644,-618.3151 1593.2314,-623.7492"/>
</a>
</g>
</g>
<!-- 14 -->
<g id="node28" class="node">
<title>14</title>
<g id="a_node28"><a xlink:title="file&#10;PHSKCYYYY&#45;MM&#45;DD_CEDAR.&#10;csv">
<polygon fill="#cccccc" stroke="#000000" points="437.7976,-522.4013 225.9896,-522.4013 225.9896,-457.5988 437.7976,-457.5988 437.7976,-522.4013"/>
<text text-anchor="middle" x="331.8936" y="-502.6" font-family="Times,serif" font-size="14.00" fill="#000000">file</text>
<text text-anchor="middle" x="331.8936" y="-485.8" font-family="Times,serif" font-size="14.00" fill="#000000">PHSKCYYYY&#45;MM&#45;DD_CEDAR.</text>
<text text-anchor="middle" x="331.8936" y="-469" font-family="Times,serif" font-size="14.00" fill="#000000">csv</text>
</a>
</g>
</g>
<!-- 14&#45;&gt;9 -->
<g id="edge30" class="edge">
<title>14&#45;&gt;9</title>
<g id="a_edge30"><a xlink:href="https://github.com/PHSKC-Analytics-Informatics/Data_Pipeline/blob/main/Scripts%20-%20Data%20Sources/IIS%20COVID-19%20Immunization/03_raw_02_waiis_clean.R" xlink:title="03_raw_02_waiis_clean.R">
<path fill="none" stroke="#000000" stroke-width="1.5" d="M437.8123,-518.2354C457.2356,-523.4132 476.7809,-528.6235 493.9691,-533.2055"/>
<polygon fill="#000000" stroke="#000000" stroke-width="1.5" points="493.2341,-536.6317 503.7982,-535.8257 495.0372,-529.8679 493.2341,-536.6317"/>
</a>
</g>
</g>
<!-- 14&#45;&gt;10 -->
<g id="edge31" class="edge">
<title>14&#45;&gt;10</title>
<g id="a_edge31"><a xlink:href="https://github.com/PHSKC-Analytics-Informatics/Data_Pipeline/blob/main/Scripts%20-%20Data%20Sources/IIS%20COVID-19%20Immunization/03_raw_02_waiis_clean.R" xlink:title="03_raw_02_waiis_clean.R">
<path fill="none" stroke="#000000" stroke-width="1.5" d="M437.8123,-486.1055C456.8751,-485.4045 476.0553,-484.6993 493.0096,-484.0759"/>
<polygon fill="#000000" stroke="#000000" stroke-width="1.5" points="493.3928,-487.5643 503.2574,-483.6991 493.1355,-480.569 493.3928,-487.5643"/>
</a>
</g>
</g>
<!-- 15 -->
<g id="node29" class="node">
<title>15</title>
<g id="a_node29"><a xlink:title="file&#10;admin_types.&#10;csv">
<polygon fill="#cccccc" stroke="#000000" points="376.4392,-768.4013 287.348,-768.4013 287.348,-703.5988 376.4392,-703.5988 376.4392,-768.4013"/>
<text text-anchor="middle" x="331.8936" y="-748.6" font-family="Times,serif" font-size="14.00" fill="#000000">file</text>
<text text-anchor="middle" x="331.8936" y="-731.8" font-family="Times,serif" font-size="14.00" fill="#000000">admin_types.</text>
<text text-anchor="middle" x="331.8936" y="-715" font-family="Times,serif" font-size="14.00" fill="#000000">csv</text>
</a>
</g>
</g>
<!-- 15&#45;&gt;9 -->
<g id="edge32" class="edge">
<title>15&#45;&gt;9</title>
<g id="a_edge32"><a xlink:href="https://github.com/PHSKC-Analytics-Informatics/Data_Pipeline/blob/main/Scripts%20-%20Data%20Sources/IIS%20COVID-19%20Immunization/03_raw_02_waiis_clean.R" xlink:title="03_raw_02_waiis_clean.R">
<path fill="none" stroke="#000000" stroke-width="1.5" d="M376.647,-728.0453C397.7594,-722.1764 421.7829,-712.1138 437.8456,-695 474.2077,-656.2585 438.31,-620.501 473.8456,-581 479.6297,-574.5705 486.8916,-569.3382 494.6126,-565.096"/>
<polygon fill="#000000" stroke="#000000" stroke-width="1.5" points="496.4016,-568.1165 503.8263,-560.5584 493.3089,-561.8367 496.4016,-568.1165"/>
</a>
</g>
</g>
<!-- 16 -->
<g id="node30" class="node">
<title>16</title>
<g id="a_node30"><a xlink:title="file&#10;ai_2020_4region_zip.&#10;shp">
<polygon fill="#cccccc" stroke="#000000" points="1430.8804,-810.4013 1293.9264,-810.4013 1293.9264,-745.5988 1430.8804,-745.5988 1430.8804,-810.4013"/>
<text text-anchor="middle" x="1362.4034" y="-790.6" font-family="Times,serif" font-size="14.00" fill="#000000">file</text>
<text text-anchor="middle" x="1362.4034" y="-773.8" font-family="Times,serif" font-size="14.00" fill="#000000">ai_2020_4region_zip.</text>
<text text-anchor="middle" x="1362.4034" y="-757" font-family="Times,serif" font-size="14.00" fill="#000000">shp</text>
</a>
</g>
</g>
<!-- 16&#45;&gt;26 -->
<g id="edge34" class="edge">
<title>16&#45;&gt;26</title>
<g id="a_edge34"><a xlink:href="NA" xlink:title="Respiratory Virus&#10;Immunization Summary&#10;Report">
<path fill="none" stroke="#000000" stroke-width="1.5" d="M1430.9513,-787.4324C1444.1623,-789.2503 1458.5012,-791.2234 1473.2306,-793.2502"/>
<polygon fill="#000000" stroke="#000000" stroke-width="1.5" points="1473.0974,-796.7647 1483.4811,-794.6607 1474.0516,-789.8301 1473.0974,-796.7647"/>
</a>
</g>
</g>
<!-- 16&#45;&gt;27 -->
<g id="edge33" class="edge">
<title>16&#45;&gt;27</title>
<g id="a_edge33"><a xlink:href="NA" xlink:title="COVID Vaccine Website&#10;Content">
<path fill="none" stroke="#000000" stroke-width="1.5" d="M1430.6031,-745.7884C1474.1423,-725.2242 1530.0388,-698.8236 1571.7786,-679.1093"/>
<polygon fill="#000000" stroke="#000000" stroke-width="1.5" points="1573.4472,-682.192 1580.9946,-674.7565 1570.4576,-675.8625 1573.4472,-682.192"/>
</a>
</g>
</g>
<!-- 17 -->
<g id="node31" class="node">
<title>17</title>
<g id="a_node31"><a xlink:title="file&#10;colnames.&#10;csv">
<polygon fill="#cccccc" stroke="#000000" points="367.2642,-686.4013 296.523,-686.4013 296.523,-621.5988 367.2642,-621.5988 367.2642,-686.4013"/>
<text text-anchor="middle" x="331.8936" y="-666.6" font-family="Times,serif" font-size="14.00" fill="#000000">file</text>
<text text-anchor="middle" x="331.8936" y="-649.8" font-family="Times,serif" font-size="14.00" fill="#000000">colnames.</text>
<text text-anchor="middle" x="331.8936" y="-633" font-family="Times,serif" font-size="14.00" fill="#000000">csv</text>
</a>
</g>
</g>
<!-- 17&#45;&gt;9 -->
<g id="edge35" class="edge">
<title>17&#45;&gt;9</title>
<g id="a_edge35"><a xlink:href="https://github.com/PHSKC-Analytics-Informatics/Data_Pipeline/blob/main/Scripts%20-%20Data%20Sources/IIS%20COVID-19%20Immunization/03_raw_02_waiis_clean.R" xlink:title="03_raw_02_waiis_clean.R">
<path fill="none" stroke="#000000" stroke-width="1.5" d="M367.2323,-643.8476C388.563,-636.8802 415.7902,-626.4596 437.8456,-613 456.1189,-601.8485 455.8119,-592.5351 473.8456,-581 480.3787,-576.8211 487.5308,-572.9339 494.7479,-569.4017"/>
<polygon fill="#000000" stroke="#000000" stroke-width="1.5" points="496.3118,-572.5342 503.8825,-565.1224 493.3422,-566.1953 496.3118,-572.5342"/>
</a>
</g>
</g>
<!-- 18 -->
<g id="node32" class="node">
<title>18</title>
<g id="a_node32"><a xlink:title="file&#10;cvx_code_lookup.&#10;rds">
<polygon fill="#cccccc" stroke="#000000" points="608.0017,-654.4013 490.9329,-654.4013 490.9329,-589.5988 608.0017,-589.5988 608.0017,-654.4013"/>
<text text-anchor="middle" x="549.4673" y="-634.6" font-family="Times,serif" font-size="14.00" fill="#000000">file</text>
<text text-anchor="middle" x="549.4673" y="-617.8" font-family="Times,serif" font-size="14.00" fill="#000000">cvx_code_lookup.</text>
<text text-anchor="middle" x="549.4673" y="-601" font-family="Times,serif" font-size="14.00" fill="#000000">rds</text>
</a>
</g>
</g>
<!-- 18&#45;&gt;11 -->
<g id="edge36" class="edge">
<title>18&#45;&gt;11</title>
<g id="a_edge36"><a xlink:href="https://github.com/PHSKC-Analytics-Informatics/Data_Pipeline/blob/main/Scripts%20-%20Data%20Sources/IIS%20COVID-19%20Immunization/04_staging_01_doses.R" xlink:title="04_staging_01_doses.R">
<path fill="none" stroke="#000000" stroke-width="1.5" d="M608.3137,-651.7062C614.1274,-655.2869 619.8195,-659.0743 625.089,-663 644.9629,-677.8055 664.7149,-697.2926 679.8824,-713.5547"/>
<polygon fill="#000000" stroke="#000000" stroke-width="1.5" points="677.5998,-716.2439 686.9404,-721.2443 682.7568,-711.5104 677.5998,-716.2439"/>
</a>
</g>
</g>
<!-- 19 -->
<g id="node33" class="node">
<title>19</title>
<g id="a_node33"><a xlink:title="file&#10;geo_key_zip_to_city.&#10;rds">
<polygon fill="#cccccc" stroke="#000000" points="399.3144,-604.4013 264.4728,-604.4013 264.4728,-539.5988 399.3144,-539.5988 399.3144,-604.4013"/>
<text text-anchor="middle" x="331.8936" y="-584.6" font-family="Times,serif" font-size="14.00" fill="#000000">file</text>
<text text-anchor="middle" x="331.8936" y="-567.8" font-family="Times,serif" font-size="14.00" fill="#000000">geo_key_zip_to_city.</text>
<text text-anchor="middle" x="331.8936" y="-551" font-family="Times,serif" font-size="14.00" fill="#000000">rds</text>
</a>
</g>
</g>
<!-- 19&#45;&gt;9 -->
<g id="edge37" class="edge">
<title>19&#45;&gt;9</title>
<g id="a_edge37"><a xlink:href="https://github.com/PHSKC-Analytics-Informatics/Data_Pipeline/blob/main/Scripts%20-%20Data%20Sources/IIS%20COVID-19%20Immunization/03_raw_02_waiis_clean.R" xlink:title="03_raw_02_waiis_clean.R">
<path fill="none" stroke="#000000" stroke-width="1.5" d="M399.5426,-564.5378C429.762,-561.2044 464.9481,-557.3231 493.6359,-554.1586"/>
<polygon fill="#000000" stroke="#000000" stroke-width="1.5" points="494.3339,-557.6029 503.8899,-553.0275 493.5664,-550.6451 494.3339,-557.6029"/>
</a>
</g>
</g>
<!-- 20 -->
<g id="node34" class="node">
<title>20</title>
<g id="a_node34"><a xlink:title="file&#10;geo_key_zip_to_regions.&#10;rds">
<polygon fill="#cccccc" stroke="#000000" points="409.5291,-940.4013 254.2581,-940.4013 254.2581,-875.5988 409.5291,-875.5988 409.5291,-940.4013"/>
<text text-anchor="middle" x="331.8936" y="-920.6" font-family="Times,serif" font-size="14.00" fill="#000000">file</text>
<text text-anchor="middle" x="331.8936" y="-903.8" font-family="Times,serif" font-size="14.00" fill="#000000">geo_key_zip_to_regions.</text>
<text text-anchor="middle" x="331.8936" y="-887" font-family="Times,serif" font-size="14.00" fill="#000000">rds</text>
</a>
</g>
</g>
<!-- 20&#45;&gt;1 -->
<g id="edge40" class="edge">
<title>20&#45;&gt;1</title>
<g id="a_edge40"><a xlink:href="https://github.com/PHSKC-Analytics-Informatics/Data_Pipeline/blob/main/Scripts%20-%20Data%20Sources/IIS%20COVID-19%20Immunization/05_prod_03_pub_age_re_geo.R" xlink:title="05_prod_03_pub_age_re_geo.R">
<path fill="none" stroke="#000000" stroke-width="1.5" d="M409.5094,-929.7802C470.7462,-942.7394 556.9102,-951.3889 625.089,-921 703.1453,-886.2085 710.9542,-852.0387 753.6332,-778 779.5341,-733.0676 747.6833,-697.4956 789.6332,-667 880.831,-600.7034 1020.327,-645.9871 1097.3786,-680.0376"/>
<polygon fill="#000000" stroke="#000000" stroke-width="1.5" points="1096.3588,-683.417 1106.9137,-684.3354 1099.2352,-677.0353 1096.3588,-683.417"/>
</a>
</g>
</g>
<!-- 20&#45;&gt;9 -->
<g id="edge38" class="edge">
<title>20&#45;&gt;9</title>
<g id="a_edge38"><a xlink:href="https://github.com/PHSKC-Analytics-Informatics/Data_Pipeline/blob/main/Scripts%20-%20Data%20Sources/IIS%20COVID-19%20Immunization/03_raw_02_waiis_clean.R" xlink:title="03_raw_02_waiis_clean.R">
<path fill="none" stroke="#000000" stroke-width="1.5" d="M365.8925,-875.655C389.7961,-850.9178 420.4978,-814.7398 437.8456,-777 474.8367,-696.5264 418.8122,-650.395 473.8456,-581 479.4071,-573.9871 486.7589,-568.4317 494.6957,-564.04"/>
<polygon fill="#000000" stroke="#000000" stroke-width="1.5" points="496.4,-567.1026 503.8409,-559.5605 493.3207,-560.8162 496.4,-567.1026"/>
</a>
</g>
</g>
<!-- 20&#45;&gt;11 -->
<g id="edge39" class="edge">
<title>20&#45;&gt;11</title>
<g id="a_edge39"><a xlink:href="https://github.com/PHSKC-Analytics-Informatics/Data_Pipeline/blob/main/Scripts%20-%20Data%20Sources/IIS%20COVID-19%20Immunization/04_staging_01_doses.R" xlink:title="04_staging_01_doses.R">
<path fill="none" stroke="#000000" stroke-width="1.5" d="M409.6936,-917.3042C484.2379,-924.6307 590.3806,-930.4192 625.089,-909 671.1246,-880.5906 692.2877,-817.7024 701.3191,-778.5822"/>
<polygon fill="#000000" stroke="#000000" stroke-width="1.5" points="704.7621,-779.22 703.4588,-768.7056 697.9207,-777.7378 704.7621,-779.22"/>
</a>
</g>
</g>
<!-- 21 -->
<g id="node35" class="node">
<title>21</title>
<g id="a_node35"><a xlink:title="file&#10;iis_claims_simple_27.&#10;rds">
<polygon fill="#cccccc" stroke="#000000" points="619.0703,-900.4013 479.8643,-900.4013 479.8643,-835.5988 619.0703,-835.5988 619.0703,-900.4013"/>
<text text-anchor="middle" x="549.4673" y="-880.6" font-family="Times,serif" font-size="14.00" fill="#000000">file</text>
<text text-anchor="middle" x="549.4673" y="-863.8" font-family="Times,serif" font-size="14.00" fill="#000000">iis_claims_simple_27.</text>
<text text-anchor="middle" x="549.4673" y="-847" font-family="Times,serif" font-size="14.00" fill="#000000">rds</text>
</a>
</g>
</g>
<!-- 21&#45;&gt;11 -->
<g id="edge41" class="edge">
<title>21&#45;&gt;11</title>
<g id="a_edge41"><a xlink:href="https://github.com/PHSKC-Analytics-Informatics/Data_Pipeline/blob/main/Scripts%20-%20Data%20Sources/IIS%20COVID-19%20Immunization/04_staging_01_doses.R" xlink:title="04_staging_01_doses.R">
<path fill="none" stroke="#000000" stroke-width="1.5" d="M612.6465,-835.5706C616.947,-832.8107 621.1369,-829.9443 625.089,-827 644.9629,-812.1945 664.7149,-792.7074 679.8824,-776.4453"/>
<polygon fill="#000000" stroke="#000000" stroke-width="1.5" points="682.7568,-778.4896 686.9404,-768.7557 677.5998,-773.7561 682.7568,-778.4896"/>
</a>
</g>
</g>
<!-- 22 -->
<g id="node36" class="node">
<title>22</title>
<g id="a_node36"><a xlink:title="file&#10;iis_wrds_link_simple.&#10;rds">
<polygon fill="#cccccc" stroke="#000000" points="618.5171,-818.4013 480.4175,-818.4013 480.4175,-753.5988 618.5171,-753.5988 618.5171,-818.4013"/>
<text text-anchor="middle" x="549.4673" y="-798.6" font-family="Times,serif" font-size="14.00" fill="#000000">file</text>
<text text-anchor="middle" x="549.4673" y="-781.8" font-family="Times,serif" font-size="14.00" fill="#000000">iis_wrds_link_simple.</text>
<text text-anchor="middle" x="549.4673" y="-765" font-family="Times,serif" font-size="14.00" fill="#000000">rds</text>
</a>
</g>
</g>
<!-- 22&#45;&gt;11 -->
<g id="edge42" class="edge">
<title>22&#45;&gt;11</title>
<g id="a_edge42"><a xlink:href="https://github.com/PHSKC-Analytics-Informatics/Data_Pipeline/blob/main/Scripts%20-%20Data%20Sources/IIS%20COVID-19%20Immunization/04_staging_01_doses.R" xlink:title="04_staging_01_doses.R">
<path fill="none" stroke="#000000" stroke-width="1.5" d="M618.7218,-768.0168C629.522,-765.2123 640.568,-762.3441 651.0345,-759.6262"/>
<polygon fill="#000000" stroke="#000000" stroke-width="1.5" points="652.0657,-762.9746 660.865,-757.0735 650.3063,-756.1993 652.0657,-762.9746"/>
</a>
</g>
</g>
<!-- 23 -->
<g id="node37" class="node">
<title>23</title>
<g id="a_node37"><a xlink:title="file&#10;population_2023_ZIP_raceeth_age_sex.&#10;rds">
<polygon fill="#cccccc" stroke="#000000" points="1029.4535,-740.4013 789.6931,-740.4013 789.6931,-675.5988 1029.4535,-675.5988 1029.4535,-740.4013"/>
<text text-anchor="middle" x="909.5733" y="-720.6" font-family="Times,serif" font-size="14.00" fill="#000000">file</text>
<text text-anchor="middle" x="909.5733" y="-703.8" font-family="Times,serif" font-size="14.00" fill="#000000">population_2023_ZIP_raceeth_age_sex.</text>
<text text-anchor="middle" x="909.5733" y="-687" font-family="Times,serif" font-size="14.00" fill="#000000">rds</text>
</a>
</g>
</g>
<!-- 23&#45;&gt;1 -->
<g id="edge44" class="edge">
<title>23&#45;&gt;1</title>
<g id="a_edge44"><a xlink:href="https://github.com/PHSKC-Analytics-Informatics/Data_Pipeline/blob/main/Scripts%20-%20Data%20Sources/IIS%20COVID-19%20Immunization/05_prod_03_pub_age_re_geo.R" xlink:title="05_prod_03_pub_age_re_geo.R">
<path fill="none" stroke="#000000" stroke-width="1.5" d="M1029.6953,-708C1044.6876,-708 1059.7159,-708 1073.873,-708"/>
<polygon fill="#000000" stroke="#000000" stroke-width="1.5" points="1074.0147,-711.5001 1084.0147,-708 1074.0146,-704.5001 1074.0147,-711.5001"/>
</a>
</g>
</g>
<!-- 23&#45;&gt;6 -->
<g id="edge43" class="edge">
<title>23&#45;&gt;6</title>
<g id="a_edge43"><a xlink:href="https://github.com/PHSKC-Analytics-Informatics/Data_Pipeline/blob/main/Scripts%20-%20Data%20Sources/IIS%20COVID-19%20Immunization/05_prod_01_pub_vax_status.R" xlink:title="05_prod_01_pub_vax_status.R">
<path fill="none" stroke="#000000" stroke-width="1.5" d="M1011.5602,-740.2088C1030.6732,-746.2449 1050.4576,-752.4931 1068.9651,-758.338"/>
<polygon fill="#000000" stroke="#000000" stroke-width="1.5" points="1067.9269,-761.6804 1078.5167,-761.3545 1070.035,-755.0054 1067.9269,-761.6804"/>
</a>
</g>
</g>
<!-- 24 -->
<g id="node38" class="node">
<title>24</title>
<g id="a_node38"><a xlink:title="file&#10;population_2023_kc_raceeth_age_sex.&#10;rds">
<polygon fill="#cccccc" stroke="#000000" points="1025.6723,-822.4013 793.4743,-822.4013 793.4743,-757.5988 1025.6723,-757.5988 1025.6723,-822.4013"/>
<text text-anchor="middle" x="909.5733" y="-802.6" font-family="Times,serif" font-size="14.00" fill="#000000">file</text>
<text text-anchor="middle" x="909.5733" y="-785.8" font-family="Times,serif" font-size="14.00" fill="#000000">population_2023_kc_raceeth_age_sex.</text>
<text text-anchor="middle" x="909.5733" y="-769" font-family="Times,serif" font-size="14.00" fill="#000000">rds</text>
</a>
</g>
</g>
<!-- 24&#45;&gt;1 -->
<g id="edge46" class="edge">
<title>24&#45;&gt;1</title>
<g id="a_edge46"><a xlink:href="https://github.com/PHSKC-Analytics-Informatics/Data_Pipeline/blob/main/Scripts%20-%20Data%20Sources/IIS%20COVID-19%20Immunization/05_prod_03_pub_age_re_geo.R" xlink:title="05_prod_03_pub_age_re_geo.R">
<path fill="none" stroke="#000000" stroke-width="1.5" d="M1005.5856,-757.7091C1028.3375,-750.0572 1052.3511,-741.981 1074.2548,-734.6143"/>
<polygon fill="#000000" stroke="#000000" stroke-width="1.5" points="1075.4668,-737.8994 1083.8294,-731.3942 1073.2353,-731.2646 1075.4668,-737.8994"/>
</a>
</g>
</g>
<!-- 24&#45;&gt;6 -->
<g id="edge45" class="edge">
<title>24&#45;&gt;6</title>
<g id="a_edge45"><a xlink:href="https://github.com/PHSKC-Analytics-Informatics/Data_Pipeline/blob/main/Scripts%20-%20Data%20Sources/IIS%20COVID-19%20Immunization/05_prod_01_pub_vax_status.R" xlink:title="05_prod_01_pub_vax_status.R">
<path fill="none" stroke="#000000" stroke-width="1.5" d="M1025.7684,-787.6171C1037.4126,-787.3784 1049.1264,-787.1381 1060.4837,-786.9052"/>
<polygon fill="#000000" stroke="#000000" stroke-width="1.5" points="1060.8752,-790.398 1070.8014,-786.6936 1060.7317,-783.3995 1060.8752,-790.398"/>
</a>
</g>
</g>
<!-- 25 -->
<g id="node39" class="node">
<title>25</title>
<g id="a_node39"><a xlink:title="file&#10;use_dates_by_age_mvx.&#10;csv">
<polygon fill="#cccccc" stroke="#000000" points="625.2109,-736.4013 473.7237,-736.4013 473.7237,-671.5988 625.2109,-671.5988 625.2109,-736.4013"/>
<text text-anchor="middle" x="549.4673" y="-716.6" font-family="Times,serif" font-size="14.00" fill="#000000">file</text>
<text text-anchor="middle" x="549.4673" y="-699.8" font-family="Times,serif" font-size="14.00" fill="#000000">use_dates_by_age_mvx.</text>
<text text-anchor="middle" x="549.4673" y="-683" font-family="Times,serif" font-size="14.00" fill="#000000">csv</text>
</a>
</g>
</g>
<!-- 25&#45;&gt;11 -->
<g id="edge47" class="edge">
<title>25&#45;&gt;11</title>
<g id="a_edge47"><a xlink:href="https://github.com/PHSKC-Analytics-Informatics/Data_Pipeline/blob/main/Scripts%20-%20Data%20Sources/IIS%20COVID-19%20Immunization/04_staging_01_doses.R" xlink:title="04_staging_01_doses.R">
<path fill="none" stroke="#000000" stroke-width="1.5" d="M625.177,-723.6594C633.9374,-725.9342 642.751,-728.2228 651.1855,-730.413"/>
<polygon fill="#000000" stroke="#000000" stroke-width="1.5" points="650.328,-733.8063 660.8867,-732.9321 652.0873,-727.031 650.328,-733.8063"/>
</a>
</g>
</g>
<!-- 28 -->
<g id="node42" class="node">
<title>28</title>
<g id="a_node42"><a xlink:title="url&#10;PHSKCYYYY&#45;MM&#45;DD.&#10;zip">
<polygon fill="#009acd" stroke="#000000" points="181.9365,-522.4013 24.0051,-522.4013 24.0051,-457.5988 181.9365,-457.5988 181.9365,-522.4013"/>
<text text-anchor="middle" x="102.9708" y="-502.6" font-family="Times,serif" font-size="14.00" fill="#fffafa">url</text>
<text text-anchor="middle" x="102.9708" y="-485.8" font-family="Times,serif" font-size="14.00" fill="#fffafa">PHSKCYYYY&#45;MM&#45;DD.</text>
<text text-anchor="middle" x="102.9708" y="-469" font-family="Times,serif" font-size="14.00" fill="#fffafa">zip</text>
</a>
</g>
</g>
<!-- 28&#45;&gt;14 -->
<g id="edge48" class="edge">
<title>28&#45;&gt;14</title>
<g id="a_edge48"><a xlink:href="https://github.com/PHSKC-Analytics-Informatics/Data_Pipeline/blob/main/Scripts%20-%20Data%20Sources/IIS%20COVID-19%20Immunization/03_raw_01_waiis_extract.R" xlink:title="03_raw_01_waiis_extract.R">
<path fill="none" stroke="#000000" stroke-width="1.5" d="M181.753,-490C192.7566,-490 204.2489,-490 215.7637,-490"/>
<polygon fill="#000000" stroke="#000000" stroke-width="1.5" points="215.8769,-493.5001 225.8769,-490 215.8769,-486.5001 215.8769,-493.5001"/>
</a>
</g>
</g>
</g>
</svg>

