<?xml version="1.0" encoding="UTF-8" standalone="no"?>
<!DOCTYPE svg PUBLIC "-//W3C//DTD SVG 1.1//EN"
 "http://www.w3.org/Graphics/SVG/1.1/DTD/svg11.dtd">
<!-- Generated by graphviz version 2.40.1 (20161225.0304)
 -->
<!-- Pages: 1 -->
<svg width="741pt" height="734pt"
 viewBox="0.00 0.00 741.44 734.00" xmlns="http://www.w3.org/2000/svg" xmlns:xlink="http://www.w3.org/1999/xlink">
<g id="graph0" class="graph" transform="scale(1 1) rotate(0) translate(4 730)">
<polygon fill="#ffffff" stroke="transparent" points="-4,4 -4,-730 737.4392,-730 737.4392,4 -4,4"/>
<g id="clust1" class="cluster">
<title>cluster_legend</title>
<polygon fill="#ffffff" stroke="#ffffff" points="8,-8 8,-332 329.9471,-332 329.9471,-8 8,-8"/>
<text text-anchor="middle" x="168.9736" y="-295.6" font-family="Times,serif" font-size="36.00" fill="#000000">Color Legend</text>
</g>
<g id="clust2" class="cluster">
<title>cluster_main</title>
<polygon fill="none" stroke="transparent" points="49.2882,-340 49.2882,-718 725.4392,-718 725.4392,-340 49.2882,-340"/>
<text text-anchor="middle" x="387.3637" y="-670.8" font-family="Times,serif" font-size="48.00" fill="#000000">Data Source: GISAID COVID&#45;19</text>
</g>
<!-- kc1 -->
<g id="node1" class="node">
<title>kc1</title>
<polygon fill="#009acd" stroke="#000000" points="321.9471,-272 267.9471,-272 267.9471,-236 321.9471,-236 321.9471,-272"/>
</g>
<!-- k1 -->
<g id="node2" class="node">
<title>k1</title>
<text text-anchor="middle" x="88" y="-246.8" font-family="Times,serif" font-size="24.00" fill="#000000">url&#13;</text>
</g>
<!-- k1&#45;&gt;kc1 -->
<!-- kc2 -->
<g id="node3" class="node">
<title>kc2</title>
<polygon fill="#cccccc" stroke="#000000" points="321.9471,-217 267.9471,-217 267.9471,-181 321.9471,-181 321.9471,-217"/>
</g>
<!-- k2 -->
<g id="node4" class="node">
<title>k2</title>
<text text-anchor="middle" x="88" y="-191.8" font-family="Times,serif" font-size="24.00" fill="#000000">file&#13;</text>
</g>
<!-- k2&#45;&gt;kc2 -->
<!-- kc3 -->
<g id="node5" class="node">
<title>kc3</title>
<polygon fill="#54ff9f" stroke="#000000" points="321.9471,-162 267.9471,-162 267.9471,-126 321.9471,-126 321.9471,-162"/>
</g>
<!-- k3 -->
<g id="node6" class="node">
<title>k3</title>
<text text-anchor="middle" x="88" y="-136.8" font-family="Times,serif" font-size="24.00" fill="#000000">ai_raw&#13;</text>
</g>
<!-- k3&#45;&gt;kc3 -->
<!-- kc4 -->
<g id="node7" class="node">
<title>kc4</title>
<polygon fill="#43cd80" stroke="#000000" points="321.9471,-107 267.9471,-107 267.9471,-71 321.9471,-71 321.9471,-107"/>
</g>
<!-- k4 -->
<g id="node8" class="node">
<title>k4</title>
<text text-anchor="middle" x="88" y="-81.8" font-family="Times,serif" font-size="24.00" fill="#000000">ai_staging&#13;</text>
</g>
<!-- k4&#45;&gt;kc4 -->
<!-- kc5 -->
<g id="node9" class="node">
<title>kc5</title>
<polygon fill="#2e8b57" stroke="#000000" points="321.9471,-52 267.9471,-52 267.9471,-16 321.9471,-16 321.9471,-52"/>
</g>
<!-- k5 -->
<g id="node10" class="node">
<title>k5</title>
<text text-anchor="middle" x="88" y="-26.8" font-family="Times,serif" font-size="24.00" fill="#000000">ai_prod&#13;</text>
</g>
<!-- k5&#45;&gt;kc5 -->
<!-- 1 -->
<g id="node11" class="node">
<title>1</title>
<g id="a_node11"><a xlink:title="ai_prod.&#10;gisaid_cov_dash">
<polygon fill="#2e8b57" stroke="#000000" points="717.5968,-543.6017 609.9674,-543.6017 609.9674,-496.3983 717.5968,-496.3983 717.5968,-543.6017"/>
<text text-anchor="middle" x="663.7821" y="-524.2" font-family="Times,serif" font-size="14.00" fill="#fffafa">ai_prod.</text>
<text text-anchor="middle" x="663.7821" y="-507.4" font-family="Times,serif" font-size="14.00" fill="#fffafa">gisaid_cov_dash</text>
</a>
</g>
</g>
<!-- 2 -->
<g id="node12" class="node">
<title>2</title>
<g id="a_node12"><a xlink:title="ai_raw.&#10;gisaid_cov_meta_partial">
<polygon fill="#54ff9f" stroke="#000000" points="370.5746,-576.6017 219.3196,-576.6017 219.3196,-529.3983 370.5746,-529.3983 370.5746,-576.6017"/>
<text text-anchor="middle" x="294.9471" y="-557.2" font-family="Times,serif" font-size="14.00" fill="#000000">ai_raw.</text>
<text text-anchor="middle" x="294.9471" y="-540.4" font-family="Times,serif" font-size="14.00" fill="#000000">gisaid_cov_meta_partial</text>
</a>
</g>
</g>
<!-- 2&#45;&gt;2 -->
<g id="edge6" class="edge">
<title>2&#45;&gt;2</title>
<g id="a_edge6"><a xlink:href="https://github.com/PHSKC-Analytics-Informatics/Data_Pipeline/blob/main/Scripts%20-%20Data%20Sources/GISAID%20COVID-19/03_raw_02_gisaid_cov_meta_partial.R" xlink:title="03_raw_01_gisaid_cov_meta_partial.R">
<path fill="none" stroke="#000000" stroke-width="1.5" d="M256.6616,-576.6342C254.0212,-586.4659 266.783,-594.8 294.9471,-594.8 312.9897,-594.8 324.7112,-591.3797 330.1117,-586.3364"/>
<polygon fill="#000000" stroke="#000000" stroke-width="1.5" points="333.5022,-587.2256 333.2326,-576.6342 326.8385,-585.082 333.5022,-587.2256"/>
</a>
</g>
</g>
<!-- 4 -->
<g id="node14" class="node">
<title>4</title>
<g id="a_node14"><a xlink:title="ai_staging.&#10;gisaid_cov_meta">
<polygon fill="#43cd80" stroke="#000000" points="556.3751,-543.6017 447.6441,-543.6017 447.6441,-496.3983 556.3751,-496.3983 556.3751,-543.6017"/>
<text text-anchor="middle" x="502.0096" y="-524.2" font-family="Times,serif" font-size="14.00" fill="#000000">ai_staging.</text>
<text text-anchor="middle" x="502.0096" y="-507.4" font-family="Times,serif" font-size="14.00" fill="#000000">gisaid_cov_meta</text>
</a>
</g>
</g>
<!-- 2&#45;&gt;4 -->
<g id="edge7" class="edge">
<title>2&#45;&gt;4</title>
<g id="a_edge7"><a xlink:href="https://github.com/PHSKC-Analytics-Informatics/Data_Pipeline/blob/main/Scripts%20-%20Data%20Sources/GISAID%20COVID-19/04_staging_02_gisaid_cov_meta_partial.R" xlink:title="04_staging_02_gisaid_cov_meta_partial.R">
<path fill="none" stroke="#000000" stroke-width="1.5" d="M370.5804,-540.9462C392.4223,-537.4652 416.0545,-533.6989 437.1764,-530.3326"/>
<polygon fill="#000000" stroke="#000000" stroke-width="1.5" points="438.0004,-533.7455 447.3249,-528.7152 436.8987,-526.8328 438.0004,-533.7455"/>
</a>
</g>
</g>
<!-- 3 -->
<g id="node13" class="node">
<title>3</title>
<g id="a_node13"><a xlink:title="ai_raw.&#10;wdrs_cov_wgs">
<polygon fill="#54ff9f" stroke="#000000" points="343.9247,-510.6017 245.9695,-510.6017 245.9695,-463.3983 343.9247,-463.3983 343.9247,-510.6017"/>
<text text-anchor="middle" x="294.9471" y="-491.2" font-family="Times,serif" font-size="14.00" fill="#000000">ai_raw.</text>
<text text-anchor="middle" x="294.9471" y="-474.4" font-family="Times,serif" font-size="14.00" fill="#000000">wdrs_cov_wgs</text>
</a>
</g>
</g>
<!-- 3&#45;&gt;4 -->
<g id="edge9" class="edge">
<title>3&#45;&gt;4</title>
<g id="a_edge9"><a xlink:href="https://github.com/PHSKC-Analytics-Informatics/Data_Pipeline/blob/main/Scripts%20-%20Data%20Sources/GISAID%20COVID-19/04_staging_02_gisaid_cov_meta_partial.R" xlink:title="04_staging_02_gisaid_cov_meta_partial.R">
<path fill="none" stroke="#000000" stroke-width="1.5" d="M344.018,-494.8205C371.954,-499.2728 407.2855,-504.9036 437.4493,-509.7109"/>
<polygon fill="#000000" stroke="#000000" stroke-width="1.5" points="437.0363,-513.1892 447.4625,-511.3067 438.138,-506.2764 437.0363,-513.1892"/>
</a>
</g>
</g>
<!-- 5 -->
<g id="node15" class="node">
<title>5</title>
<g id="a_node15"><a xlink:title="ai_staging.&#10;gisaid_cov_meta_full">
<polygon fill="#43cd80" stroke="#000000" points="569.8171,-477.6017 434.2021,-477.6017 434.2021,-430.3983 569.8171,-430.3983 569.8171,-477.6017"/>
<text text-anchor="middle" x="502.0096" y="-458.2" font-family="Times,serif" font-size="14.00" fill="#000000">ai_staging.</text>
<text text-anchor="middle" x="502.0096" y="-441.4" font-family="Times,serif" font-size="14.00" fill="#000000">gisaid_cov_meta_full</text>
</a>
</g>
</g>
<!-- 3&#45;&gt;5 -->
<g id="edge8" class="edge">
<title>3&#45;&gt;5</title>
<g id="a_edge8"><a xlink:href="https://github.com/PHSKC-Analytics-Informatics/Data_Pipeline/blob/main/Scripts%20-%20Data%20Sources/GISAID%20COVID-19/04_staging_01_gisaid_cov_meta_full.R" xlink:title="04_staging_01_gisaid_meta_full.R">
<path fill="none" stroke="#000000" stroke-width="1.5" d="M344.018,-479.1795C367.8781,-475.3768 397.133,-470.7144 423.9553,-466.4397"/>
<polygon fill="#000000" stroke="#000000" stroke-width="1.5" points="424.7753,-469.8532 434.0998,-464.8229 423.6736,-462.9405 424.7753,-469.8532"/>
</a>
</g>
</g>
<!-- 4&#45;&gt;1 -->
<g id="edge11" class="edge">
<title>4&#45;&gt;1</title>
<g id="a_edge11"><a xlink:href="https://github.com/PHSKC-Analytics-Informatics/Data_Pipeline/blob/main/Scripts%20-%20Data%20Sources/GISAID%20COVID-19/05_prod_01_gisaid_cov_dash.R" xlink:title="05_prod_01_gisaid_cov_dash.R">
<path fill="none" stroke="#000000" stroke-width="1.5" d="M556.7784,-520C570.5715,-520 585.4997,-520 599.7044,-520"/>
<polygon fill="#000000" stroke="#000000" stroke-width="1.5" points="599.8932,-523.5001 609.8931,-520 599.8931,-516.5001 599.8932,-523.5001"/>
</a>
</g>
</g>
<!-- 4&#45;&gt;4 -->
<g id="edge10" class="edge">
<title>4&#45;&gt;4</title>
<g id="a_edge10"><a xlink:href="https://github.com/PHSKC-Analytics-Informatics/Data_Pipeline/blob/main/Scripts%20-%20Data%20Sources/GISAID%20COVID-19/04_staging_02_gisaid_cov_meta_partial.R" xlink:title="04_staging_02_gisaid_cov_meta_partial.R">
<path fill="none" stroke="#000000" stroke-width="1.5" d="M472.2733,-543.6342C470.2225,-553.4659 480.1346,-561.8 502.0096,-561.8 516.0233,-561.8 525.1274,-558.3797 529.3219,-553.3364"/>
<polygon fill="#000000" stroke="#000000" stroke-width="1.5" points="532.7176,-554.1843 531.7459,-543.6342 525.9263,-552.4876 532.7176,-554.1843"/>
</a>
</g>
</g>
<!-- 6 -->
<g id="node16" class="node">
<title>6</title>
<g id="a_node16"><a xlink:title="file&#10;lineage_classifications.&#10;csv">
<polygon fill="#cccccc" stroke="#000000" points="574.2406,-644.4013 429.7786,-644.4013 429.7786,-579.5988 574.2406,-579.5988 574.2406,-644.4013"/>
<text text-anchor="middle" x="502.0096" y="-624.6" font-family="Times,serif" font-size="14.00" fill="#000000">file</text>
<text text-anchor="middle" x="502.0096" y="-607.8" font-family="Times,serif" font-size="14.00" fill="#000000">lineage_classifications.</text>
<text text-anchor="middle" x="502.0096" y="-591" font-family="Times,serif" font-size="14.00" fill="#000000">csv</text>
</a>
</g>
</g>
<!-- 6&#45;&gt;1 -->
<g id="edge12" class="edge">
<title>6&#45;&gt;1</title>
<g id="a_edge12"><a xlink:href="https://github.com/PHSKC-Analytics-Informatics/Data_Pipeline/blob/main/Scripts%20-%20Data%20Sources/GISAID%20COVID-19/05_prod_01_gisaid_cov_dash.R" xlink:title="05_prod_01_gisaid_cov_dash.R">
<path fill="none" stroke="#000000" stroke-width="1.5" d="M559.0445,-579.5642C576.7839,-569.4759 596.2041,-558.4316 613.4514,-548.6231"/>
<polygon fill="#000000" stroke="#000000" stroke-width="1.5" points="615.2898,-551.604 622.2522,-543.6181 611.8293,-545.5192 615.2898,-551.604"/>
</a>
</g>
</g>
<!-- 7 -->
<g id="node17" class="node">
<title>7</title>
<g id="a_node17"><a xlink:title="file&#10;metadata_tsv_YYYY_MM_DD.&#10;tar">
<polygon fill="#cccccc" stroke="#000000" points="393.8413,-445.4013 196.0529,-445.4013 196.0529,-380.5988 393.8413,-380.5988 393.8413,-445.4013"/>
<text text-anchor="middle" x="294.9471" y="-425.6" font-family="Times,serif" font-size="14.00" fill="#000000">file</text>
<text text-anchor="middle" x="294.9471" y="-408.8" font-family="Times,serif" font-size="14.00" fill="#000000">metadata_tsv_YYYY_MM_DD.</text>
<text text-anchor="middle" x="294.9471" y="-392" font-family="Times,serif" font-size="14.00" fill="#000000">tar</text>
</a>
</g>
</g>
<!-- 7&#45;&gt;5 -->
<g id="edge13" class="edge">
<title>7&#45;&gt;5</title>
<g id="a_edge13"><a xlink:href="https://github.com/PHSKC-Analytics-Informatics/Data_Pipeline/blob/main/Scripts%20-%20Data%20Sources/GISAID%20COVID-19/04_staging_01_gisaid_cov_meta_full.R" xlink:title="04_staging_01_gisaid_meta_full.R">
<path fill="none" stroke="#000000" stroke-width="1.5" d="M393.9299,-432.5994C404.0393,-434.6011 414.2066,-436.6143 424.0453,-438.5625"/>
<polygon fill="#000000" stroke="#000000" stroke-width="1.5" points="423.6737,-442.0568 434.1631,-440.5659 425.0334,-435.1901 423.6737,-442.0568"/>
</a>
</g>
</g>
<!-- 8 -->
<g id="node18" class="node">
<title>8</title>
<g id="a_node18"><a xlink:title="url&#10;GISAID">
<polygon fill="#009acd" stroke="#000000" points="118.9251,-506.6017 57.0749,-506.6017 57.0749,-459.3983 118.9251,-459.3983 118.9251,-506.6017"/>
<text text-anchor="middle" x="88" y="-487.2" font-family="Times,serif" font-size="14.00" fill="#fffafa">url</text>
<text text-anchor="middle" x="88" y="-470.4" font-family="Times,serif" font-size="14.00" fill="#fffafa">GISAID</text>
</a>
</g>
</g>
<!-- 8&#45;&gt;2 -->
<g id="edge15" class="edge">
<title>8&#45;&gt;2</title>
<g id="a_edge15"><a xlink:href="https://github.com/PHSKC-Analytics-Informatics/Data_Pipeline/blob/main/Scripts%20-%20Data%20Sources/GISAID%20COVID-19/03_raw_02_gisaid_cov_meta_partial.R" xlink:title="03_raw_01_gisaid_cov_meta_partial.R">
<path fill="none" stroke="#000000" stroke-width="1.5" d="M119.1694,-493.7535C140.7298,-501.1735 170.0891,-511.2409 196,-520 201.9104,-521.998 208.0221,-524.0559 214.1738,-526.1214"/>
<polygon fill="#000000" stroke="#000000" stroke-width="1.5" points="213.2567,-529.5053 223.8507,-529.3659 215.4821,-522.8685 213.2567,-529.5053"/>
</a>
</g>
</g>
<!-- 8&#45;&gt;7 -->
<g id="edge14" class="edge">
<title>8&#45;&gt;7</title>
<g id="a_edge14"><a xlink:href="https://github.com/PHSKC-Analytics-Informatics/Data_Pipeline/blob/main/Scripts%20-%20Data%20Sources/GISAID%20COVID-19/03_raw_01_gisaid_cov_meta_full.R" xlink:title="03_raw_01_gisaid_cov_meta_full.R">
<path fill="none" stroke="#000000" stroke-width="1.5" d="M118.9821,-472.5203C138.163,-466.0323 164.0226,-457.2853 190.0056,-448.4965"/>
<polygon fill="#000000" stroke="#000000" stroke-width="1.5" points="191.2205,-451.7805 199.5718,-445.2608 188.9775,-445.1495 191.2205,-451.7805"/>
</a>
</g>
</g>
<!-- 9 -->
<g id="node19" class="node">
<title>9</title>
<g id="a_node19"><a xlink:title="url&#10;alias_key.&#10;json">
<polygon fill="#009acd" stroke="#000000" points="537.3802,-412.4013 466.639,-412.4013 466.639,-347.5988 537.3802,-347.5988 537.3802,-412.4013"/>
<text text-anchor="middle" x="502.0096" y="-392.6" font-family="Times,serif" font-size="14.00" fill="#fffafa">url</text>
<text text-anchor="middle" x="502.0096" y="-375.8" font-family="Times,serif" font-size="14.00" fill="#fffafa">alias_key.</text>
<text text-anchor="middle" x="502.0096" y="-359" font-family="Times,serif" font-size="14.00" fill="#fffafa">json</text>
</a>
</g>
</g>
<!-- 9&#45;&gt;1 -->
<g id="edge16" class="edge">
<title>9&#45;&gt;1</title>
<g id="a_edge16"><a xlink:href="https://github.com/PHSKC-Analytics-Informatics/Data_Pipeline/blob/main/Scripts%20-%20Data%20Sources/GISAID%20COVID-19/05_prod_01_gisaid_cov_dash.R" xlink:title="05_prod_01_gisaid_cov_dash.R">
<path fill="none" stroke="#000000" stroke-width="1.5" d="M537.561,-397.2828C549.6969,-403.9274 563.0019,-412.08 574.125,-421 598.7187,-440.7226 622.4768,-467.4184 639.3506,-488.1184"/>
<polygon fill="#000000" stroke="#000000" stroke-width="1.5" points="636.7014,-490.4094 645.6922,-496.0145 642.1592,-486.0261 636.7014,-490.4094"/>
</a>
</g>
</g>
</g>
</svg>

