<?xml version="1.0" encoding="UTF-8" standalone="no"?>
<!DOCTYPE svg PUBLIC "-//W3C//DTD SVG 1.1//EN"
 "http://www.w3.org/Graphics/SVG/1.1/DTD/svg11.dtd">
<!-- Generated by graphviz version 2.40.1 (20161225.0304)
 -->
<!-- Pages: 1 -->
<svg width="1212pt" height="1198pt"
 viewBox="0.00 0.00 1212.36 1198.00" xmlns="http://www.w3.org/2000/svg" xmlns:xlink="http://www.w3.org/1999/xlink">
<g id="graph0" class="graph" transform="scale(1 1) rotate(0) translate(4 1194)">
<polygon fill="#ffffff" stroke="transparent" points="-4,4 -4,-1194 1208.3624,-1194 1208.3624,4 -4,4"/>
<g id="clust1" class="cluster">
<title>cluster_legend</title>
<polygon fill="#ffffff" stroke="#ffffff" points="10.8364,-8 10.8364,-387 323.7547,-387 323.7547,-8 10.8364,-8"/>
<text text-anchor="middle" x="167.2956" y="-350.6" font-family="Times,serif" font-size="36.00" fill="#000000">Color Legend</text>
</g>
<g id="clust2" class="cluster">
<title>cluster_main</title>
<polygon fill="none" stroke="transparent" points="8,-395 8,-1182 1196.3624,-1182 1196.3624,-395 8,-395"/>
<text text-anchor="middle" x="602.1812" y="-1134.8" font-family="Times,serif" font-size="48.00" fill="#000000">Data Source: WA Health</text>
</g>
<!-- kc1 -->
<g id="node1" class="node">
<title>kc1</title>
<polygon fill="#a6a6a6" stroke="#000000" points="315.7547,-327 261.7547,-327 261.7547,-291 315.7547,-291 315.7547,-327"/>
</g>
<!-- k1 -->
<g id="node2" class="node">
<title>k1</title>
<text text-anchor="middle" x="105.8072" y="-301.8" font-family="Times,serif" font-size="24.00" fill="#000000">archive&#13;</text>
</g>
<!-- k1&#45;&gt;kc1 -->
<!-- kc2 -->
<g id="node3" class="node">
<title>kc2</title>
<polygon fill="#cccccc" stroke="#000000" points="315.7547,-272 261.7547,-272 261.7547,-236 315.7547,-236 315.7547,-272"/>
</g>
<!-- k2 -->
<g id="node4" class="node">
<title>k2</title>
<text text-anchor="middle" x="105.8072" y="-246.8" font-family="Times,serif" font-size="24.00" fill="#000000">file&#13;</text>
</g>
<!-- k2&#45;&gt;kc2 -->
<!-- kc3 -->
<g id="node5" class="node">
<title>kc3</title>
<polygon fill="#27408b" stroke="#000000" points="315.7547,-217 261.7547,-217 261.7547,-181 315.7547,-181 315.7547,-217"/>
</g>
<!-- k3 -->
<g id="node6" class="node">
<title>k3</title>
<text text-anchor="middle" x="105.8072" y="-191.8" font-family="Times,serif" font-size="24.00" fill="#000000">reports_internal&#13;</text>
</g>
<!-- k3&#45;&gt;kc3 -->
<!-- kc4 -->
<g id="node7" class="node">
<title>kc4</title>
<polygon fill="#54ff9f" stroke="#000000" points="315.7547,-162 261.7547,-162 261.7547,-126 315.7547,-126 315.7547,-162"/>
</g>
<!-- k4 -->
<g id="node8" class="node">
<title>k4</title>
<text text-anchor="middle" x="105.8072" y="-136.8" font-family="Times,serif" font-size="24.00" fill="#000000">ai_raw&#13;</text>
</g>
<!-- k4&#45;&gt;kc4 -->
<!-- kc5 -->
<g id="node9" class="node">
<title>kc5</title>
<polygon fill="#43cd80" stroke="#000000" points="315.7547,-107 261.7547,-107 261.7547,-71 315.7547,-71 315.7547,-107"/>
</g>
<!-- k5 -->
<g id="node10" class="node">
<title>k5</title>
<text text-anchor="middle" x="105.8072" y="-81.8" font-family="Times,serif" font-size="24.00" fill="#000000">ai_staging&#13;</text>
</g>
<!-- k5&#45;&gt;kc5 -->
<!-- kc6 -->
<g id="node11" class="node">
<title>kc6</title>
<polygon fill="#2e8b57" stroke="#000000" points="315.7547,-52 261.7547,-52 261.7547,-16 315.7547,-16 315.7547,-52"/>
</g>
<!-- k6 -->
<g id="node12" class="node">
<title>k6</title>
<text text-anchor="middle" x="105.8072" y="-26.8" font-family="Times,serif" font-size="24.00" fill="#000000">ai_prod&#13;</text>
</g>
<!-- k6&#45;&gt;kc6 -->
<!-- 1 -->
<g id="node13" class="node">
<title>1</title>
<g id="a_node13"><a xlink:title="ai_prod.&#10;wah_agg">
<polygon fill="#2e8b57" stroke="#000000" points="795.7854,-779.6017 731.7104,-779.6017 731.7104,-732.3983 795.7854,-732.3983 795.7854,-779.6017"/>
<text text-anchor="middle" x="763.7479" y="-760.2" font-family="Times,serif" font-size="14.00" fill="#fffafa">ai_prod.</text>
<text text-anchor="middle" x="763.7479" y="-743.4" font-family="Times,serif" font-size="14.00" fill="#fffafa">wah_agg</text>
</a>
</g>
</g>
<!-- 2 -->
<g id="node14" class="node">
<title>2</title>
<g id="a_node14"><a xlink:title="ai_prod.&#10;wah_agg_weekly">
<polygon fill="#2e8b57" stroke="#000000" points="963.0075,-845.6017 851.0831,-845.6017 851.0831,-798.3983 963.0075,-798.3983 963.0075,-845.6017"/>
<text text-anchor="middle" x="907.0453" y="-826.2" font-family="Times,serif" font-size="14.00" fill="#fffafa">ai_prod.</text>
<text text-anchor="middle" x="907.0453" y="-809.4" font-family="Times,serif" font-size="14.00" fill="#fffafa">wah_agg_weekly</text>
</a>
</g>
</g>
<!-- 1&#45;&gt;2 -->
<g id="edge8" class="edge">
<title>1&#45;&gt;2</title>
<g id="a_edge8"><a xlink:href="https://github.com/PHSKC-Analytics-Informatics/Data_Pipeline/blob/main/Scripts%20-%20Data%20Sources/WA%20Health/05_prod_05_wah_agg_weekly.R" xlink:title="05_prod_05_wah_agg_weekly.R">
<path fill="none" stroke="#000000" stroke-width="1.5" d="M795.9066,-770.8117C810.7365,-777.6421 828.8489,-785.9842 846.1121,-793.9354"/>
<polygon fill="#000000" stroke="#000000" stroke-width="1.5" points="845.0421,-797.2959 855.5892,-798.3003 847.9705,-790.9378 845.0421,-797.2959"/>
</a>
</g>
</g>
<!-- 4 -->
<g id="node16" class="node">
<title>4</title>
<g id="a_node16"><a xlink:title="ai_prod.&#10;wah_summary">
<polygon fill="#2e8b57" stroke="#000000" points="955.4684,-779.6017 858.6222,-779.6017 858.6222,-732.3983 955.4684,-732.3983 955.4684,-779.6017"/>
<text text-anchor="middle" x="907.0453" y="-760.2" font-family="Times,serif" font-size="14.00" fill="#fffafa">ai_prod.</text>
<text text-anchor="middle" x="907.0453" y="-743.4" font-family="Times,serif" font-size="14.00" fill="#fffafa">wah_summary</text>
</a>
</g>
</g>
<!-- 1&#45;&gt;4 -->
<g id="edge7" class="edge">
<title>1&#45;&gt;4</title>
<g id="a_edge7"><a xlink:href="https://github.com/PHSKC-Analytics-Informatics/Data_Pipeline/blob/main/Scripts%20-%20Data%20Sources/WA%20Health/05_prod_03_wah_summary.R" xlink:title="05_prod_03_wah_summary.R">
<path fill="none" stroke="#000000" stroke-width="1.5" d="M795.9066,-756C811.4302,-756 830.5504,-756 848.5285,-756"/>
<polygon fill="#000000" stroke="#000000" stroke-width="1.5" points="848.6563,-759.5001 858.6562,-756 848.6562,-752.5001 848.6563,-759.5001"/>
</a>
</g>
</g>
<!-- 25 -->
<g id="node37" class="node">
<title>25</title>
<g id="a_node37"><a xlink:title="reports_internal&#10;A&amp;I Respiratory Virus Review">
<polygon fill="#27408b" stroke="#000000" points="1188.5307,-790.6017 998.8581,-790.6017 998.8581,-743.3983 1188.5307,-743.3983 1188.5307,-790.6017"/>
<text text-anchor="middle" x="1093.6944" y="-771.2" font-family="Times,serif" font-size="14.00" fill="#fffafa">reports_internal</text>
<text text-anchor="middle" x="1093.6944" y="-754.4" font-family="Times,serif" font-size="14.00" fill="#fffafa">A&amp;I Respiratory Virus Review</text>
</a>
</g>
</g>
<!-- 1&#45;&gt;25 -->
<g id="edge9" class="edge">
<title>1&#45;&gt;25</title>
<g id="a_edge9"><a xlink:href="NA" xlink:title="A&amp;I Respiratory Virus&#10;Review">
<path fill="none" stroke="#000000" stroke-width="1.5" d="M796.1128,-740.5658C812.2317,-733.7159 832.2529,-726.4361 851.0642,-723 900.0152,-714.0585 913.9202,-714.9542 963.0264,-723 984.4385,-726.5083 1007.0696,-733.0485 1027.372,-740.0338"/>
<polygon fill="#000000" stroke="#000000" stroke-width="1.5" points="1026.2338,-743.3436 1036.8286,-743.3758 1028.5663,-736.7437 1026.2338,-743.3436"/>
</a>
</g>
</g>
<!-- 2&#45;&gt;25 -->
<g id="edge10" class="edge">
<title>2&#45;&gt;25</title>
<g id="a_edge10"><a xlink:href="NA" xlink:title="A&amp;I Respiratory Virus&#10;Review">
<path fill="none" stroke="#000000" stroke-width="1.5" d="M963.0462,-805.4982C975.9587,-801.6933 990.0124,-797.552 1003.9592,-793.4423"/>
<polygon fill="#000000" stroke="#000000" stroke-width="1.5" points="1004.9793,-796.7906 1013.5822,-790.6067 1003.0007,-790.0761 1004.9793,-796.7906"/>
</a>
</g>
</g>
<!-- 3 -->
<g id="node15" class="node">
<title>3</title>
<g id="a_node15"><a xlink:title="ai_prod.&#10;wah_fac">
<polygon fill="#2e8b57" stroke="#000000" points="650.5803,-779.6017 588.7555,-779.6017 588.7555,-732.3983 650.5803,-732.3983 650.5803,-779.6017"/>
<text text-anchor="middle" x="619.6679" y="-760.2" font-family="Times,serif" font-size="14.00" fill="#fffafa">ai_prod.</text>
<text text-anchor="middle" x="619.6679" y="-743.4" font-family="Times,serif" font-size="14.00" fill="#fffafa">wah_fac</text>
</a>
</g>
</g>
<!-- 3&#45;&gt;1 -->
<g id="edge11" class="edge">
<title>3&#45;&gt;1</title>
<g id="a_edge11"><a xlink:href="https://github.com/PHSKC-Analytics-Informatics/Data_Pipeline/blob/main/Scripts%20-%20Data%20Sources/WA%20Health/05_prod_02_wah_agg.R" xlink:title="05_prod_02_wah_agg.R">
<path fill="none" stroke="#000000" stroke-width="1.5" d="M650.5767,-756C671.2276,-756 698.66,-756 721.3442,-756"/>
<polygon fill="#000000" stroke="#000000" stroke-width="1.5" points="721.3911,-759.5001 731.3911,-756 721.3911,-752.5001 721.3911,-759.5001"/>
</a>
</g>
</g>
<!-- 26 -->
<g id="node38" class="node">
<title>26</title>
<g id="a_node38"><a xlink:title="reports_internal&#10;Data Quality">
<polygon fill="#27408b" stroke="#000000" points="814.8812,-845.6017 712.6146,-845.6017 712.6146,-798.3983 814.8812,-798.3983 814.8812,-845.6017"/>
<text text-anchor="middle" x="763.7479" y="-826.2" font-family="Times,serif" font-size="14.00" fill="#fffafa">reports_internal</text>
<text text-anchor="middle" x="763.7479" y="-809.4" font-family="Times,serif" font-size="14.00" fill="#fffafa">Data Quality</text>
</a>
</g>
</g>
<!-- 3&#45;&gt;26 -->
<g id="edge12" class="edge">
<title>3&#45;&gt;26</title>
<g id="a_edge12"><a xlink:href="NA" xlink:title="Data Quality">
<path fill="none" stroke="#000000" stroke-width="1.5" d="M650.5767,-770.1587C665.9266,-777.1901 685.0234,-785.938 703.1319,-794.2331"/>
<polygon fill="#000000" stroke="#000000" stroke-width="1.5" points="701.9371,-797.5355 712.4863,-798.5182 704.8524,-791.1714 701.9371,-797.5355"/>
</a>
</g>
</g>
<!-- 5 -->
<g id="node17" class="node">
<title>5</title>
<g id="a_node17"><a xlink:title="ai_prod.&#10;wah_update_time">
<polygon fill="#2e8b57" stroke="#000000" points="676.1963,-845.6017 563.1395,-845.6017 563.1395,-798.3983 676.1963,-798.3983 676.1963,-845.6017"/>
<text text-anchor="middle" x="619.6679" y="-826.2" font-family="Times,serif" font-size="14.00" fill="#fffafa">ai_prod.</text>
<text text-anchor="middle" x="619.6679" y="-809.4" font-family="Times,serif" font-size="14.00" fill="#fffafa">wah_update_time</text>
</a>
</g>
</g>
<!-- 5&#45;&gt;26 -->
<g id="edge13" class="edge">
<title>5&#45;&gt;26</title>
<g id="a_edge13"><a xlink:href="NA" xlink:title="Data Quality">
<path fill="none" stroke="#000000" stroke-width="1.5" d="M676.1986,-822C684.8116,-822 693.7351,-822 702.4445,-822"/>
<polygon fill="#000000" stroke="#000000" stroke-width="1.5" points="702.5387,-825.5001 712.5387,-822 702.5386,-818.5001 702.5387,-825.5001"/>
</a>
</g>
</g>
<!-- 6 -->
<g id="node18" class="node">
<title>6</title>
<g id="a_node18"><a xlink:title="ai_raw.&#10;wah_census">
<polygon fill="#54ff9f" stroke="#000000" points="329.3951,-598.6017 248.1143,-598.6017 248.1143,-551.3983 329.3951,-551.3983 329.3951,-598.6017"/>
<text text-anchor="middle" x="288.7547" y="-579.2" font-family="Times,serif" font-size="14.00" fill="#000000">ai_raw.</text>
<text text-anchor="middle" x="288.7547" y="-562.4" font-family="Times,serif" font-size="14.00" fill="#000000">wah_census</text>
</a>
</g>
</g>
<!-- 11 -->
<g id="node23" class="node">
<title>11</title>
<g id="a_node23"><a xlink:title="ai_staging.&#10;wah_census">
<polygon fill="#43cd80" stroke="#000000" points="495.04,-516.6017 413.7592,-516.6017 413.7592,-469.3983 495.04,-469.3983 495.04,-516.6017"/>
<text text-anchor="middle" x="454.3996" y="-497.2" font-family="Times,serif" font-size="14.00" fill="#000000">ai_staging.</text>
<text text-anchor="middle" x="454.3996" y="-480.4" font-family="Times,serif" font-size="14.00" fill="#000000">wah_census</text>
</a>
</g>
</g>
<!-- 6&#45;&gt;11 -->
<g id="edge14" class="edge">
<title>6&#45;&gt;11</title>
<g id="a_edge14"><a xlink:href="https://github.com/PHSKC-Analytics-Informatics/Data_Pipeline/blob/main/Scripts%20-%20Data%20Sources/WA%20Health/04_staging_02_wah_census.R" xlink:title="04_staging_02_wah_census.R">
<path fill="none" stroke="#000000" stroke-width="1.5" d="M329.6672,-552.1581C345.7974,-543.3845 364.5779,-533.454 381.895,-525 389.0238,-521.5198 396.6192,-517.984 404.1095,-514.5943"/>
<polygon fill="#000000" stroke="#000000" stroke-width="1.5" points="405.7992,-517.6727 413.4979,-510.3939 402.9404,-511.283 405.7992,-517.6727"/>
</a>
</g>
</g>
<!-- 16 -->
<g id="node28" class="node">
<title>16</title>
<g id="a_node28"><a xlink:title="archive&#10;wah_census_raw_[Sys.&#10;Date].&#10;csv">
<polygon fill="#a6a6a6" stroke="#000000" points="526.9088,-615.7002 381.8904,-615.7002 381.8904,-534.2998 526.9088,-534.2998 526.9088,-615.7002"/>
<text text-anchor="middle" x="454.3996" y="-596" font-family="Times,serif" font-size="14.00" fill="#000000">archive</text>
<text text-anchor="middle" x="454.3996" y="-579.2" font-family="Times,serif" font-size="14.00" fill="#000000">wah_census_raw_[Sys.</text>
<text text-anchor="middle" x="454.3996" y="-562.4" font-family="Times,serif" font-size="14.00" fill="#000000">Date].</text>
<text text-anchor="middle" x="454.3996" y="-545.6" font-family="Times,serif" font-size="14.00" fill="#000000">csv</text>
</a>
</g>
</g>
<!-- 6&#45;&gt;16 -->
<g id="edge15" class="edge">
<title>6&#45;&gt;16</title>
<g id="a_edge15"><a xlink:href="https://github.com/PHSKC-Analytics-Informatics/Data_Pipeline/blob/main/Scripts%20-%20Data%20Sources/WA%20Health/06_out_01_wah_raw_backup.R" xlink:title="06_out_01_wah_raw_backup.R">
<path fill="none" stroke="#000000" stroke-width="1.5" d="M329.7006,-569.0843C342.4667,-568.5278 357.034,-568.2497 371.6004,-568.25"/>
<polygon fill="#000000" stroke="#000000" stroke-width="1.5" points="371.647,-571.7501 381.6625,-568.2947 371.6782,-564.7502 371.647,-571.7501"/>
</a>
</g>
</g>
<!-- 7 -->
<g id="node19" class="node">
<title>7</title>
<g id="a_node19"><a xlink:title="ai_raw.&#10;wah_cov">
<polygon fill="#54ff9f" stroke="#000000" points="320.7922,-1091.6017 256.7172,-1091.6017 256.7172,-1044.3983 320.7922,-1044.3983 320.7922,-1091.6017"/>
<text text-anchor="middle" x="288.7547" y="-1072.2" font-family="Times,serif" font-size="14.00" fill="#000000">ai_raw.</text>
<text text-anchor="middle" x="288.7547" y="-1055.4" font-family="Times,serif" font-size="14.00" fill="#000000">wah_cov</text>
</a>
</g>
</g>
<!-- 12 -->
<g id="node24" class="node">
<title>12</title>
<g id="a_node24"><a xlink:title="ai_staging.&#10;wah_cov">
<polygon fill="#43cd80" stroke="#000000" points="491.9452,-1009.6017 416.854,-1009.6017 416.854,-962.3983 491.9452,-962.3983 491.9452,-1009.6017"/>
<text text-anchor="middle" x="454.3996" y="-990.2" font-family="Times,serif" font-size="14.00" fill="#000000">ai_staging.</text>
<text text-anchor="middle" x="454.3996" y="-973.4" font-family="Times,serif" font-size="14.00" fill="#000000">wah_cov</text>
</a>
</g>
</g>
<!-- 7&#45;&gt;12 -->
<g id="edge16" class="edge">
<title>7&#45;&gt;12</title>
<g id="a_edge16"><a xlink:href="https://github.com/PHSKC-Analytics-Informatics/Data_Pipeline/blob/main/Scripts%20-%20Data%20Sources/WA%20Health/04_staging_03_wah_cov.R" xlink:title="04_staging_03_wah_cov.R">
<path fill="none" stroke="#000000" stroke-width="1.5" d="M321.1955,-1049.7917C338.9528,-1040.0268 361.4443,-1027.9838 381.895,-1018 389.9801,-1014.0529 398.6654,-1010.0344 407.1168,-1006.2385"/>
<polygon fill="#000000" stroke="#000000" stroke-width="1.5" points="408.7973,-1009.3218 416.5149,-1002.063 405.9551,-1002.9248 408.7973,-1009.3218"/>
</a>
</g>
</g>
<!-- 17 -->
<g id="node29" class="node">
<title>17</title>
<g id="a_node29"><a xlink:title="archive&#10;wah_cov_raw_[Sys.&#10;Date].&#10;csv">
<polygon fill="#a6a6a6" stroke="#000000" points="518.305,-1108.7002 390.4942,-1108.7002 390.4942,-1027.2998 518.305,-1027.2998 518.305,-1108.7002"/>
<text text-anchor="middle" x="454.3996" y="-1089" font-family="Times,serif" font-size="14.00" fill="#000000">archive</text>
<text text-anchor="middle" x="454.3996" y="-1072.2" font-family="Times,serif" font-size="14.00" fill="#000000">wah_cov_raw_[Sys.</text>
<text text-anchor="middle" x="454.3996" y="-1055.4" font-family="Times,serif" font-size="14.00" fill="#000000">Date].</text>
<text text-anchor="middle" x="454.3996" y="-1038.6" font-family="Times,serif" font-size="14.00" fill="#000000">csv</text>
</a>
</g>
</g>
<!-- 7&#45;&gt;17 -->
<g id="edge17" class="edge">
<title>7&#45;&gt;17</title>
<g id="a_edge17"><a xlink:href="https://github.com/PHSKC-Analytics-Informatics/Data_Pipeline/blob/main/Scripts%20-%20Data%20Sources/WA%20Health/06_out_01_wah_raw_backup.R" xlink:title="06_out_01_wah_raw_backup.R">
<path fill="none" stroke="#000000" stroke-width="1.5" d="M321.0859,-1062.519C337.9965,-1061.5378 359.4482,-1061.1256 380.174,-1061.2824"/>
<polygon fill="#000000" stroke="#000000" stroke-width="1.5" points="380.2253,-1064.7832 390.2671,-1061.4051 380.3105,-1057.7837 380.2253,-1064.7832"/>
</a>
</g>
</g>
<!-- 8 -->
<g id="node20" class="node">
<title>8</title>
<g id="a_node20"><a xlink:title="ai_raw.&#10;wah_fac_baseline">
<polygon fill="#54ff9f" stroke="#000000" points="346.0356,-454.6017 231.4738,-454.6017 231.4738,-407.3983 346.0356,-407.3983 346.0356,-454.6017"/>
<text text-anchor="middle" x="288.7547" y="-435.2" font-family="Times,serif" font-size="14.00" fill="#000000">ai_raw.</text>
<text text-anchor="middle" x="288.7547" y="-418.4" font-family="Times,serif" font-size="14.00" fill="#000000">wah_fac_baseline</text>
</a>
</g>
</g>
<!-- 13 -->
<g id="node25" class="node">
<title>13</title>
<g id="a_node25"><a xlink:title="ai_staging.&#10;wah_fac_baseline">
<polygon fill="#43cd80" stroke="#000000" points="511.6805,-450.6017 397.1187,-450.6017 397.1187,-403.3983 511.6805,-403.3983 511.6805,-450.6017"/>
<text text-anchor="middle" x="454.3996" y="-431.2" font-family="Times,serif" font-size="14.00" fill="#000000">ai_staging.</text>
<text text-anchor="middle" x="454.3996" y="-414.4" font-family="Times,serif" font-size="14.00" fill="#000000">wah_fac_baseline</text>
</a>
</g>
</g>
<!-- 8&#45;&gt;13 -->
<g id="edge18" class="edge">
<title>8&#45;&gt;13</title>
<g id="a_edge18"><a xlink:href="https://github.com/PHSKC-Analytics-Informatics/Data_Pipeline/blob/main/Scripts%20-%20Data%20Sources/WA%20Health/04_staging_01_wah_fac_baseline.R" xlink:title="04_staging_01_wah_fac_baseline.R">
<path fill="none" stroke="#000000" stroke-width="1.5" d="M346.2244,-429.6122C359.3296,-429.2958 373.372,-428.9567 386.8549,-428.6311"/>
<polygon fill="#000000" stroke="#000000" stroke-width="1.5" points="387.119,-432.1258 397.0315,-428.3853 386.9499,-425.1279 387.119,-432.1258"/>
</a>
</g>
</g>
<!-- 9 -->
<g id="node21" class="node">
<title>9</title>
<g id="a_node21"><a xlink:title="ai_raw.&#10;wah_inf">
<polygon fill="#54ff9f" stroke="#000000" points="318.6272,-886.6017 258.8822,-886.6017 258.8822,-839.3983 318.6272,-839.3983 318.6272,-886.6017"/>
<text text-anchor="middle" x="288.7547" y="-867.2" font-family="Times,serif" font-size="14.00" fill="#000000">ai_raw.</text>
<text text-anchor="middle" x="288.7547" y="-850.4" font-family="Times,serif" font-size="14.00" fill="#000000">wah_inf</text>
</a>
</g>
</g>
<!-- 14 -->
<g id="node26" class="node">
<title>14</title>
<g id="a_node26"><a xlink:title="ai_staging.&#10;wah_inf">
<polygon fill="#43cd80" stroke="#000000" points="491.9452,-845.6017 416.854,-845.6017 416.854,-798.3983 491.9452,-798.3983 491.9452,-845.6017"/>
<text text-anchor="middle" x="454.3996" y="-826.2" font-family="Times,serif" font-size="14.00" fill="#000000">ai_staging.</text>
<text text-anchor="middle" x="454.3996" y="-809.4" font-family="Times,serif" font-size="14.00" fill="#000000">wah_inf</text>
</a>
</g>
</g>
<!-- 9&#45;&gt;14 -->
<g id="edge19" class="edge">
<title>9&#45;&gt;14</title>
<g id="a_edge19"><a xlink:href="https://github.com/PHSKC-Analytics-Informatics/Data_Pipeline/blob/main/Scripts%20-%20Data%20Sources/WA%20Health/04_staging_04_wah_inf.R" xlink:title="04_staging_04_wah_inf.R">
<path fill="none" stroke="#000000" stroke-width="1.5" d="M318.7517,-855.5752C343.3542,-849.4857 378.6299,-840.7543 407.0413,-833.722"/>
<polygon fill="#000000" stroke="#000000" stroke-width="1.5" points="407.9097,-837.1128 416.7758,-831.3125 406.2278,-830.3178 407.9097,-837.1128"/>
</a>
</g>
</g>
<!-- 18 -->
<g id="node30" class="node">
<title>18</title>
<g id="a_node30"><a xlink:title="archive&#10;wah_inf_raw_[Sys.&#10;Date].&#10;csv">
<polygon fill="#a6a6a6" stroke="#000000" points="516.1418,-944.7002 392.6574,-944.7002 392.6574,-863.2998 516.1418,-863.2998 516.1418,-944.7002"/>
<text text-anchor="middle" x="454.3996" y="-925" font-family="Times,serif" font-size="14.00" fill="#000000">archive</text>
<text text-anchor="middle" x="454.3996" y="-908.2" font-family="Times,serif" font-size="14.00" fill="#000000">wah_inf_raw_[Sys.</text>
<text text-anchor="middle" x="454.3996" y="-891.4" font-family="Times,serif" font-size="14.00" fill="#000000">Date].</text>
<text text-anchor="middle" x="454.3996" y="-874.6" font-family="Times,serif" font-size="14.00" fill="#000000">csv</text>
</a>
</g>
</g>
<!-- 9&#45;&gt;18 -->
<g id="edge20" class="edge">
<title>9&#45;&gt;18</title>
<g id="a_edge20"><a xlink:href="https://github.com/PHSKC-Analytics-Informatics/Data_Pipeline/blob/main/Scripts%20-%20Data%20Sources/WA%20Health/06_out_01_wah_raw_backup.R" xlink:title="06_out_01_wah_raw_backup.R">
<path fill="none" stroke="#000000" stroke-width="1.5" d="M318.7517,-870.4248C336.6998,-874.8673 360.3283,-880.7157 382.828,-886.2848"/>
<polygon fill="#000000" stroke="#000000" stroke-width="1.5" points="382.1724,-889.7281 392.7205,-888.7333 383.8544,-882.9331 382.1724,-889.7281"/>
</a>
</g>
</g>
<!-- 10 -->
<g id="node22" class="node">
<title>10</title>
<g id="a_node22"><a xlink:title="ai_raw.&#10;wah_rsv">
<polygon fill="#54ff9f" stroke="#000000" points="319.6826,-738.6017 257.8268,-738.6017 257.8268,-691.3983 319.6826,-691.3983 319.6826,-738.6017"/>
<text text-anchor="middle" x="288.7547" y="-719.2" font-family="Times,serif" font-size="14.00" fill="#000000">ai_raw.</text>
<text text-anchor="middle" x="288.7547" y="-702.4" font-family="Times,serif" font-size="14.00" fill="#000000">wah_rsv</text>
</a>
</g>
</g>
<!-- 15 -->
<g id="node27" class="node">
<title>15</title>
<g id="a_node27"><a xlink:title="ai_staging.&#10;wah_rsv">
<polygon fill="#43cd80" stroke="#000000" points="491.9452,-779.6017 416.854,-779.6017 416.854,-732.3983 491.9452,-732.3983 491.9452,-779.6017"/>
<text text-anchor="middle" x="454.3996" y="-760.2" font-family="Times,serif" font-size="14.00" fill="#000000">ai_staging.</text>
<text text-anchor="middle" x="454.3996" y="-743.4" font-family="Times,serif" font-size="14.00" fill="#000000">wah_rsv</text>
</a>
</g>
</g>
<!-- 10&#45;&gt;15 -->
<g id="edge21" class="edge">
<title>10&#45;&gt;15</title>
<g id="a_edge21"><a xlink:href="https://github.com/PHSKC-Analytics-Informatics/Data_Pipeline/blob/main/Scripts%20-%20Data%20Sources/WA%20Health/04_staging_05_wah_rsv.R" xlink:title="04_staging_05_wah_rsv.R">
<path fill="none" stroke="#000000" stroke-width="1.5" d="M319.523,-722.6157C344.0214,-728.6795 378.7383,-737.2725 406.8146,-744.2219"/>
<polygon fill="#000000" stroke="#000000" stroke-width="1.5" points="406.2787,-747.6948 416.8268,-746.7001 407.9607,-740.8999 406.2787,-747.6948"/>
</a>
</g>
</g>
<!-- 19 -->
<g id="node31" class="node">
<title>19</title>
<g id="a_node31"><a xlink:title="archive&#10;wah_rsv_raw_[Sys.&#10;Date].&#10;csv">
<polygon fill="#a6a6a6" stroke="#000000" points="516.6958,-714.7002 392.1034,-714.7002 392.1034,-633.2998 516.6958,-633.2998 516.6958,-714.7002"/>
<text text-anchor="middle" x="454.3996" y="-695" font-family="Times,serif" font-size="14.00" fill="#000000">archive</text>
<text text-anchor="middle" x="454.3996" y="-678.2" font-family="Times,serif" font-size="14.00" fill="#000000">wah_rsv_raw_[Sys.</text>
<text text-anchor="middle" x="454.3996" y="-661.4" font-family="Times,serif" font-size="14.00" fill="#000000">Date].</text>
<text text-anchor="middle" x="454.3996" y="-644.6" font-family="Times,serif" font-size="14.00" fill="#000000">csv</text>
</a>
</g>
</g>
<!-- 10&#45;&gt;19 -->
<g id="edge22" class="edge">
<title>10&#45;&gt;19</title>
<g id="a_edge22"><a xlink:href="https://github.com/PHSKC-Analytics-Informatics/Data_Pipeline/blob/main/Scripts%20-%20Data%20Sources/WA%20Health/06_out_01_wah_raw_backup.R" xlink:title="06_out_01_wah_raw_backup.R">
<path fill="none" stroke="#000000" stroke-width="1.5" d="M319.523,-707.3843C337.1293,-703.0264 360.0134,-697.3622 381.9173,-691.9406"/>
<polygon fill="#000000" stroke="#000000" stroke-width="1.5" points="383.0237,-695.2725 391.8898,-689.4723 381.3418,-688.4775 383.0237,-695.2725"/>
</a>
</g>
</g>
<!-- 11&#45;&gt;3 -->
<g id="edge23" class="edge">
<title>11&#45;&gt;3</title>
<g id="a_edge23"><a xlink:href="https://github.com/PHSKC-Analytics-Informatics/Data_Pipeline/blob/main/Scripts%20-%20Data%20Sources/WA%20Health/05_prod_01_wah_fac.R" xlink:title="05_prod_01_wah_fac.R">
<path fill="none" stroke="#000000" stroke-width="1.5" d="M495.087,-504.5257C506.5243,-509.3527 518.2015,-515.9982 526.9042,-525 581.0556,-581.012 604.9412,-672.6867 614.334,-722.0222"/>
<polygon fill="#000000" stroke="#000000" stroke-width="1.5" points="610.9455,-722.9526 616.1738,-732.1676 617.8332,-721.7035 610.9455,-722.9526"/>
</a>
</g>
</g>
<!-- 11&#45;&gt;5 -->
<g id="edge24" class="edge">
<title>11&#45;&gt;5</title>
<g id="a_edge24"><a xlink:href="https://github.com/PHSKC-Analytics-Informatics/Data_Pipeline/blob/main/Scripts%20-%20Data%20Sources/WA%20Health/05_prod_04_wah_update_time.R" xlink:title="05_prod_04_wah_update_time.R">
<path fill="none" stroke="#000000" stroke-width="1.5" d="M495.4109,-502.8121C507.2832,-507.6085 519.125,-514.6675 526.9042,-525 598.1301,-619.6044 497.0339,-690.5916 562.9042,-789 563.3322,-789.6394 563.7771,-790.2681 564.2377,-790.8861"/>
<polygon fill="#000000" stroke="#000000" stroke-width="1.5" points="561.6937,-793.2908 571.0135,-798.3299 566.8703,-788.5787 561.6937,-793.2908"/>
</a>
</g>
</g>
<!-- 12&#45;&gt;3 -->
<g id="edge25" class="edge">
<title>12&#45;&gt;3</title>
<g id="a_edge25"><a xlink:href="https://github.com/PHSKC-Analytics-Informatics/Data_Pipeline/blob/main/Scripts%20-%20Data%20Sources/WA%20Health/05_prod_01_wah_fac.R" xlink:title="05_prod_01_wah_fac.R">
<path fill="none" stroke="#000000" stroke-width="1.5" d="M492.2831,-976.8483C504.9721,-972.013 518.1123,-964.762 526.9042,-954 574.3909,-895.8726 518.7138,-849.6711 562.9042,-789 567.3797,-782.8553 573.3755,-777.6726 579.7957,-773.3677"/>
<polygon fill="#000000" stroke="#000000" stroke-width="1.5" points="581.9266,-776.1715 588.7107,-768.0336 578.3324,-770.1646 581.9266,-776.1715"/>
</a>
</g>
</g>
<!-- 12&#45;&gt;5 -->
<g id="edge26" class="edge">
<title>12&#45;&gt;5</title>
<g id="a_edge26"><a xlink:href="https://github.com/PHSKC-Analytics-Informatics/Data_Pipeline/blob/main/Scripts%20-%20Data%20Sources/WA%20Health/05_prod_04_wah_update_time.R" xlink:title="05_prod_04_wah_update_time.R">
<path fill="none" stroke="#000000" stroke-width="1.5" d="M491.995,-973.9412C503.9421,-968.9707 516.6913,-962.3765 526.9042,-954 560.4187,-926.5118 587.3119,-884.0213 603.3421,-854.7111"/>
<polygon fill="#000000" stroke="#000000" stroke-width="1.5" points="606.5345,-856.1632 608.1596,-845.6937 600.3603,-852.8646 606.5345,-856.1632"/>
</a>
</g>
</g>
<!-- 13&#45;&gt;3 -->
<g id="edge27" class="edge">
<title>13&#45;&gt;3</title>
<g id="a_edge27"><a xlink:href="https://github.com/PHSKC-Analytics-Informatics/Data_Pipeline/blob/main/Scripts%20-%20Data%20Sources/WA%20Health/05_prod_01_wah_fac.R" xlink:title="05_prod_01_wah_fac.R">
<path fill="none" stroke="#000000" stroke-width="1.5" d="M511.8637,-447.3316C517.4326,-450.9342 522.6001,-455.129 526.9042,-460 594.5191,-536.5214 612.8628,-662.076 617.8297,-722.0468"/>
<polygon fill="#000000" stroke="#000000" stroke-width="1.5" points="614.3467,-722.4058 618.5874,-732.1149 621.327,-721.8804 614.3467,-722.4058"/>
</a>
</g>
</g>
<!-- 14&#45;&gt;3 -->
<g id="edge28" class="edge">
<title>14&#45;&gt;3</title>
<g id="a_edge28"><a xlink:href="https://github.com/PHSKC-Analytics-Informatics/Data_Pipeline/blob/main/Scripts%20-%20Data%20Sources/WA%20Health/05_prod_01_wah_fac.R" xlink:title="05_prod_01_wah_fac.R">
<path fill="none" stroke="#000000" stroke-width="1.5" d="M492.3155,-806.8583C518.3722,-796.4525 552.9179,-782.6566 579.4549,-772.0591"/>
<polygon fill="#000000" stroke="#000000" stroke-width="1.5" points="580.8501,-775.2708 588.8388,-768.3116 578.2539,-768.77 580.8501,-775.2708"/>
</a>
</g>
</g>
<!-- 14&#45;&gt;5 -->
<g id="edge29" class="edge">
<title>14&#45;&gt;5</title>
<g id="a_edge29"><a xlink:href="https://github.com/PHSKC-Analytics-Informatics/Data_Pipeline/blob/main/Scripts%20-%20Data%20Sources/WA%20Health/05_prod_04_wah_update_time.R" xlink:title="05_prod_04_wah_update_time.R">
<path fill="none" stroke="#000000" stroke-width="1.5" d="M492.3155,-822C510.3329,-822 532.4091,-822 553.0898,-822"/>
<polygon fill="#000000" stroke="#000000" stroke-width="1.5" points="553.1062,-825.5001 563.1062,-822 553.1062,-818.5001 553.1062,-825.5001"/>
</a>
</g>
</g>
<!-- 15&#45;&gt;3 -->
<g id="edge30" class="edge">
<title>15&#45;&gt;3</title>
<g id="a_edge30"><a xlink:href="https://github.com/PHSKC-Analytics-Informatics/Data_Pipeline/blob/main/Scripts%20-%20Data%20Sources/WA%20Health/05_prod_01_wah_fac.R" xlink:title="05_prod_01_wah_fac.R">
<path fill="none" stroke="#000000" stroke-width="1.5" d="M492.3155,-756C518.1436,-756 552.3125,-756 578.7548,-756"/>
<polygon fill="#000000" stroke="#000000" stroke-width="1.5" points="578.8389,-759.5001 588.8388,-756 578.8388,-752.5001 578.8389,-759.5001"/>
</a>
</g>
</g>
<!-- 15&#45;&gt;5 -->
<g id="edge31" class="edge">
<title>15&#45;&gt;5</title>
<g id="a_edge31"><a xlink:href="https://github.com/PHSKC-Analytics-Informatics/Data_Pipeline/blob/main/Scripts%20-%20Data%20Sources/WA%20Health/05_prod_04_wah_update_time.R" xlink:title="05_prod_04_wah_update_time.R">
<path fill="none" stroke="#000000" stroke-width="1.5" d="M492.3155,-771.1417C510.4967,-778.4024 532.8108,-787.3136 553.6535,-795.6371"/>
<polygon fill="#000000" stroke="#000000" stroke-width="1.5" points="552.5213,-798.9537 563.1062,-799.412 555.1174,-792.4529 552.5213,-798.9537"/>
</a>
</g>
</g>
<!-- 16&#45;&gt;6 -->
<g id="edge32" class="edge">
<title>16&#45;&gt;6</title>
<g id="a_edge32"><a xlink:href="https://github.com/PHSKC-Analytics-Informatics/Data_Pipeline/blob/main/Scripts%20-%20Data%20Sources/WA%20Health/03_raw_00_wah_census_restore.R" xlink:title="03_raw_00_wah_census_restore.R">
<path fill="none" stroke="#000000" stroke-width="1.5" d="M381.6625,-581.7053C367.6099,-581.8304 353.1642,-581.6929 339.9761,-581.2928"/>
<polygon fill="#000000" stroke="#000000" stroke-width="1.5" points="339.8223,-577.7849 329.7006,-580.9157 339.5655,-584.7802 339.8223,-577.7849"/>
</a>
</g>
</g>
<!-- 17&#45;&gt;7 -->
<g id="edge33" class="edge">
<title>17&#45;&gt;7</title>
<g id="a_edge33"><a xlink:href="https://github.com/PHSKC-Analytics-Informatics/Data_Pipeline/blob/main/Scripts%20-%20Data%20Sources/WA%20Health/03_raw_00_wah_cov_restore.R" xlink:title="03_raw_00_wah_cov_restore.R">
<path fill="none" stroke="#000000" stroke-width="1.5" d="M390.2671,-1074.5949C370.4748,-1074.9286 349.1802,-1074.7239 331.2309,-1073.9807"/>
<polygon fill="#000000" stroke="#000000" stroke-width="1.5" points="331.2461,-1070.4773 321.0859,-1073.481 330.9016,-1077.4689 331.2461,-1070.4773"/>
</a>
</g>
</g>
<!-- 20 -->
<g id="node32" class="node">
<title>20</title>
<g id="a_node32"><a xlink:title="file&#10;COVID&#45;19 Detail Data.&#10;xlsx">
<polygon fill="#cccccc" stroke="#000000" points="179.9188,-1100.4012 31.6956,-1100.4012 31.6956,-1035.5988 179.9188,-1035.5988 179.9188,-1100.4012"/>
<text text-anchor="middle" x="105.8072" y="-1080.6" font-family="Times,serif" font-size="14.00" fill="#000000">file</text>
<text text-anchor="middle" x="105.8072" y="-1063.8" font-family="Times,serif" font-size="14.00" fill="#000000">COVID&#45;19 Detail Data.</text>
<text text-anchor="middle" x="105.8072" y="-1047" font-family="Times,serif" font-size="14.00" fill="#000000">xlsx</text>
</a>
</g>
</g>
<!-- 20&#45;&gt;7 -->
<g id="edge34" class="edge">
<title>20&#45;&gt;7</title>
<g id="a_edge34"><a xlink:href="https://github.com/PHSKC-Analytics-Informatics/Data_Pipeline/blob/main/Scripts%20-%20Data%20Sources/WA%20Health/03_raw_03_wah_cov.R" xlink:title="03_raw_03_wah_cov.R">
<path fill="none" stroke="#000000" stroke-width="1.5" d="M179.9552,-1068C202.4561,-1068 226.4088,-1068 246.0953,-1068"/>
<polygon fill="#000000" stroke="#000000" stroke-width="1.5" points="246.2631,-1071.5001 256.2631,-1068 246.2631,-1064.5001 246.2631,-1071.5001"/>
</a>
</g>
</g>
<!-- 21 -->
<g id="node33" class="node">
<title>21</title>
<g id="a_node33"><a xlink:title="file&#10;Census Data Detail.&#10;xlsx">
<polygon fill="#cccccc" stroke="#000000" points="168.3823,-607.4013 43.2321,-607.4013 43.2321,-542.5988 168.3823,-542.5988 168.3823,-607.4013"/>
<text text-anchor="middle" x="105.8072" y="-587.6" font-family="Times,serif" font-size="14.00" fill="#000000">file</text>
<text text-anchor="middle" x="105.8072" y="-570.8" font-family="Times,serif" font-size="14.00" fill="#000000">Census Data Detail.</text>
<text text-anchor="middle" x="105.8072" y="-554" font-family="Times,serif" font-size="14.00" fill="#000000">xlsx</text>
</a>
</g>
</g>
<!-- 21&#45;&gt;6 -->
<g id="edge35" class="edge">
<title>21&#45;&gt;6</title>
<g id="a_edge35"><a xlink:href="https://github.com/PHSKC-Analytics-Informatics/Data_Pipeline/blob/main/Scripts%20-%20Data%20Sources/WA%20Health/03_raw_02_wah_census.R" xlink:title="03_raw_02_wah_census.R">
<path fill="none" stroke="#000000" stroke-width="1.5" d="M168.5114,-575C191.0897,-575 216.2715,-575 237.7331,-575"/>
<polygon fill="#000000" stroke="#000000" stroke-width="1.5" points="237.9423,-578.5001 247.9423,-575 237.9423,-571.5001 237.9423,-578.5001"/>
</a>
</g>
</g>
<!-- 22 -->
<g id="node34" class="node">
<title>22</title>
<g id="a_node34"><a xlink:title="file&#10;Facility Baseline Data Detail.&#10;xlsx">
<polygon fill="#cccccc" stroke="#000000" points="195.422,-467.4013 16.1924,-467.4013 16.1924,-402.5988 195.422,-402.5988 195.422,-467.4013"/>
<text text-anchor="middle" x="105.8072" y="-447.6" font-family="Times,serif" font-size="14.00" fill="#000000">file</text>
<text text-anchor="middle" x="105.8072" y="-430.8" font-family="Times,serif" font-size="14.00" fill="#000000">Facility Baseline Data Detail.</text>
<text text-anchor="middle" x="105.8072" y="-414" font-family="Times,serif" font-size="14.00" fill="#000000">xlsx</text>
</a>
</g>
</g>
<!-- 22&#45;&gt;8 -->
<g id="edge36" class="edge">
<title>22&#45;&gt;8</title>
<g id="a_edge36"><a xlink:href="https://github.com/PHSKC-Analytics-Informatics/Data_Pipeline/blob/main/Scripts%20-%20Data%20Sources/WA%20Health/03_raw_01_wah_fac_baseline.R" xlink:title="03_raw_01_wah_fac_baseline.R">
<path fill="none" stroke="#000000" stroke-width="1.5" d="M195.6731,-433.0352C204.3459,-432.8455 213.0381,-432.6555 221.4375,-432.4718"/>
<polygon fill="#000000" stroke="#000000" stroke-width="1.5" points="221.5957,-435.9693 231.5168,-432.2515 221.4426,-428.971 221.5957,-435.9693"/>
</a>
</g>
</g>
<!-- 23 -->
<g id="node35" class="node">
<title>23</title>
<g id="a_node35"><a xlink:title="file&#10;Influenza Data Detail.&#10;xlsx">
<polygon fill="#cccccc" stroke="#000000" points="174.7968,-895.4013 36.8176,-895.4013 36.8176,-830.5988 174.7968,-830.5988 174.7968,-895.4013"/>
<text text-anchor="middle" x="105.8072" y="-875.6" font-family="Times,serif" font-size="14.00" fill="#000000">file</text>
<text text-anchor="middle" x="105.8072" y="-858.8" font-family="Times,serif" font-size="14.00" fill="#000000">Influenza Data Detail.</text>
<text text-anchor="middle" x="105.8072" y="-842" font-family="Times,serif" font-size="14.00" fill="#000000">xlsx</text>
</a>
</g>
</g>
<!-- 23&#45;&gt;9 -->
<g id="edge37" class="edge">
<title>23&#45;&gt;9</title>
<g id="a_edge37"><a xlink:href="https://github.com/PHSKC-Analytics-Informatics/Data_Pipeline/blob/main/Scripts%20-%20Data%20Sources/WA%20Health/03_raw_04_wah_inf.R" xlink:title="03_raw_04_wah_inf.R">
<path fill="none" stroke="#000000" stroke-width="1.5" d="M174.9718,-863C199.8416,-863 227.0544,-863 248.6298,-863"/>
<polygon fill="#000000" stroke="#000000" stroke-width="1.5" points="248.7335,-866.5001 258.7335,-863 248.7335,-859.5001 248.7335,-866.5001"/>
</a>
</g>
</g>
<!-- 24 -->
<g id="node36" class="node">
<title>24</title>
<g id="a_node36"><a xlink:title="file&#10;RSV Detail.&#10;xlsx">
<polygon fill="#cccccc" stroke="#000000" points="147.2417,-747.4013 64.3727,-747.4013 64.3727,-682.5988 147.2417,-682.5988 147.2417,-747.4013"/>
<text text-anchor="middle" x="105.8072" y="-727.6" font-family="Times,serif" font-size="14.00" fill="#000000">file</text>
<text text-anchor="middle" x="105.8072" y="-710.8" font-family="Times,serif" font-size="14.00" fill="#000000">RSV Detail.</text>
<text text-anchor="middle" x="105.8072" y="-694" font-family="Times,serif" font-size="14.00" fill="#000000">xlsx</text>
</a>
</g>
</g>
<!-- 24&#45;&gt;10 -->
<g id="edge38" class="edge">
<title>24&#45;&gt;10</title>
<g id="a_edge38"><a xlink:href="https://github.com/PHSKC-Analytics-Informatics/Data_Pipeline/blob/main/Scripts%20-%20Data%20Sources/WA%20Health/03_raw_05_wah_rsv.R" xlink:title="03_raw_05_wah_rsv.R">
<path fill="none" stroke="#000000" stroke-width="1.5" d="M147.3208,-715C177.4042,-715 217.887,-715 247.8328,-715"/>
<polygon fill="#000000" stroke="#000000" stroke-width="1.5" points="247.9513,-718.5001 257.9512,-715 247.9512,-711.5001 247.9513,-718.5001"/>
</a>
</g>
</g>
</g>
</svg>

