<?xml version="1.0" encoding="UTF-8" standalone="no"?>
<!DOCTYPE svg PUBLIC "-//W3C//DTD SVG 1.1//EN"
 "http://www.w3.org/Graphics/SVG/1.1/DTD/svg11.dtd">
<!-- Generated by graphviz version 2.40.1 (20161225.0304)
 -->
<!-- Pages: 1 -->
<svg width="495pt" height="452pt"
 viewBox="0.00 0.00 495.36 452.00" xmlns="http://www.w3.org/2000/svg" xmlns:xlink="http://www.w3.org/1999/xlink">
<g id="graph0" class="graph" transform="scale(1 1) rotate(0) translate(4 448)">
<polygon fill="#ffffff" stroke="transparent" points="-4,4 -4,-448 491.362,-448 491.362,4 -4,4"/>
<g id="clust1" class="cluster">
<title>cluster_legend</title>
<polygon fill="#ffffff" stroke="#ffffff" points="16.4853,-8 16.4853,-167 294.627,-167 294.627,-8 16.4853,-8"/>
<text text-anchor="middle" x="155.5562" y="-130.6" font-family="Times,serif" font-size="36.00" fill="#000000">Color Legend</text>
</g>
<g id="clust2" class="cluster">
<title>cluster_main</title>
<polygon fill="none" stroke="transparent" points="0,-175 0,-436 487.362,-436 487.362,-175 0,-175"/>
<text text-anchor="middle" x="243.681" y="-388.8" font-family="Times,serif" font-size="48.00" fill="#000000">Data Source: Integration</text>
</g>
<!-- kc1 -->
<g id="node1" class="node">
<title>kc1</title>
<polygon fill="#27408b" stroke="#000000" points="286.627,-107 232.627,-107 232.627,-71 286.627,-71 286.627,-107"/>
</g>
<!-- k1 -->
<g id="node2" class="node">
<title>k1</title>
<text text-anchor="middle" x="96.4853" y="-81.8" font-family="Times,serif" font-size="24.00" fill="#000000">output&#13;</text>
</g>
<!-- k1&#45;&gt;kc1 -->
<!-- kc2 -->
<g id="node3" class="node">
<title>kc2</title>
<polygon fill="#2e8b57" stroke="#000000" points="286.627,-52 232.627,-52 232.627,-16 286.627,-16 286.627,-52"/>
</g>
<!-- k2 -->
<g id="node4" class="node">
<title>k2</title>
<text text-anchor="middle" x="96.4853" y="-26.8" font-family="Times,serif" font-size="24.00" fill="#000000">prod&#13;</text>
</g>
<!-- k2&#45;&gt;kc2 -->
<!-- 1 -->
<g id="node5" class="node">
<title>1</title>
<g id="a_node5"><a xlink:title="output&#10;integration_report">
<polygon fill="#27408b" stroke="#000000" points="464.4013,-296.6017 349.2441,-296.6017 349.2441,-249.3983 464.4013,-249.3983 464.4013,-296.6017"/>
<text text-anchor="middle" x="406.8227" y="-277.2" font-family="Times,serif" font-size="14.00" fill="#fffafa">output</text>
<text text-anchor="middle" x="406.8227" y="-260.4" font-family="Times,serif" font-size="14.00" fill="#fffafa">integration_report</text>
</a>
</g>
</g>
<!-- 2 -->
<g id="node6" class="node">
<title>2</title>
<g id="a_node6"><a xlink:title="prod&#10;hospital_a_prod_events">
<polygon fill="#2e8b57" stroke="#000000" points="169.9559,-362.6017 23.0147,-362.6017 23.0147,-315.3983 169.9559,-315.3983 169.9559,-362.6017"/>
<text text-anchor="middle" x="96.4853" y="-343.2" font-family="Times,serif" font-size="14.00" fill="#fffafa">prod</text>
<text text-anchor="middle" x="96.4853" y="-326.4" font-family="Times,serif" font-size="14.00" fill="#fffafa">hospital_a_prod_events</text>
</a>
</g>
</g>
<!-- 3 -->
<g id="node7" class="node">
<title>3</title>
<g id="a_node7"><a xlink:title="prod&#10;integration_prod">
<polygon fill="#2e8b57" stroke="#000000" points="313.4403,-296.6017 205.8137,-296.6017 205.8137,-249.3983 313.4403,-249.3983 313.4403,-296.6017"/>
<text text-anchor="middle" x="259.627" y="-277.2" font-family="Times,serif" font-size="14.00" fill="#fffafa">prod</text>
<text text-anchor="middle" x="259.627" y="-260.4" font-family="Times,serif" font-size="14.00" fill="#fffafa">integration_prod</text>
</a>
</g>
</g>
<!-- 2&#45;&gt;3 -->
<g id="edge3" class="edge">
<title>2&#45;&gt;3</title>
<g id="a_edge3"><a xlink:href="https://github.com/mock_org/data_pipeline/blob/main/Integration/integrate_1.R" xlink:title="integrate_1_Integration.R">
<path fill="none" stroke="#000000" stroke-width="1.5" d="M154.9224,-315.3589C168.4425,-309.8893 182.8869,-304.0457 196.594,-298.5004"/>
<polygon fill="#000000" stroke="#000000" stroke-width="1.5" points="197.9877,-301.7122 205.9453,-294.7173 195.3625,-295.2231 197.9877,-301.7122"/>
</a>
</g>
</g>
<!-- 3&#45;&gt;1 -->
<g id="edge4" class="edge">
<title>3&#45;&gt;1</title>
<g id="a_edge4"><a xlink:href="https://github.com/mock_org/data_pipeline/blob/main/Integration/prod_to_output_1.R" xlink:title="prod_to_output_1_Integration.R">
<path fill="none" stroke="#000000" stroke-width="1.5" d="M313.6014,-273C321.768,-273 330.2822,-273 338.7005,-273"/>
<polygon fill="#000000" stroke="#000000" stroke-width="1.5" points="338.8914,-276.5001 348.8914,-273 338.8913,-269.5001 338.8914,-276.5001"/>
</a>
</g>
</g>
<!-- 4 -->
<g id="node8" class="node">
<title>4</title>
<g id="a_node8"><a xlink:title="prod&#10;lab_b_prod_events">
<polygon fill="#2e8b57" stroke="#000000" points="156.5164,-296.6017 36.4542,-296.6017 36.4542,-249.3983 156.5164,-249.3983 156.5164,-296.6017"/>
<text text-anchor="middle" x="96.4853" y="-277.2" font-family="Times,serif" font-size="14.00" fill="#fffafa">prod</text>
<text text-anchor="middle" x="96.4853" y="-260.4" font-family="Times,serif" font-size="14.00" fill="#fffafa">lab_b_prod_events</text>
</a>
</g>
</g>
<!-- 4&#45;&gt;3 -->
<g id="edge5" class="edge">
<title>4&#45;&gt;3</title>
<g id="a_edge5"><a xlink:href="https://github.com/mock_org/data_pipeline/blob/main/Integration/integrate_1.R" xlink:title="integrate_1_Integration.R">
<path fill="none" stroke="#000000" stroke-width="1.5" d="M156.7697,-273C169.4467,-273 182.8612,-273 195.6675,-273"/>
<polygon fill="#000000" stroke="#000000" stroke-width="1.5" points="195.7818,-276.5001 205.7818,-273 195.7818,-269.5001 195.7818,-276.5001"/>
</a>
</g>
</g>
<!-- 5 -->
<g id="node9" class="node">
<title>5</title>
<g id="a_node9"><a xlink:title="prod&#10;survey_c_prod_events">
<polygon fill="#2e8b57" stroke="#000000" points="166.4447,-230.6017 26.5259,-230.6017 26.5259,-183.3983 166.4447,-183.3983 166.4447,-230.6017"/>
<text text-anchor="middle" x="96.4853" y="-211.2" font-family="Times,serif" font-size="14.00" fill="#fffafa">prod</text>
<text text-anchor="middle" x="96.4853" y="-194.4" font-family="Times,serif" font-size="14.00" fill="#fffafa">survey_c_prod_events</text>
</a>
</g>
</g>
<!-- 5&#45;&gt;3 -->
<g id="edge6" class="edge">
<title>5&#45;&gt;3</title>
<g id="a_edge6"><a xlink:href="https://github.com/mock_org/data_pipeline/blob/main/Integration/integrate_1.R" xlink:title="integrate_1_Integration.R">
<path fill="none" stroke="#000000" stroke-width="1.5" d="M154.9224,-230.6411C168.4425,-236.1107 182.8869,-241.9543 196.594,-247.4996"/>
<polygon fill="#000000" stroke="#000000" stroke-width="1.5" points="195.3625,-250.7769 205.9453,-251.2827 197.9877,-244.2878 195.3625,-250.7769"/>
</a>
</g>
</g>
</g>
</svg>

