<?xml version="1.0" encoding="UTF-8" standalone="no"?>
<!DOCTYPE svg PUBLIC "-//W3C//DTD SVG 1.1//EN"
 "http://www.w3.org/Graphics/SVG/1.1/DTD/svg11.dtd">
<!-- Generated by graphviz version 2.40.1 (20161225.0304)
 -->
<!-- Pages: 1 -->
<svg width="791pt" height="502pt"
 viewBox="0.00 0.00 790.67 502.00" xmlns="http://www.w3.org/2000/svg" xmlns:xlink="http://www.w3.org/1999/xlink">
<g id="graph0" class="graph" transform="scale(1 1) rotate(0) translate(4 498)">
<polygon fill="#ffffff" stroke="transparent" points="-4,4 -4,-498 786.6678,-498 786.6678,4 -4,4"/>
<g id="clust1" class="cluster">
<title>cluster_legend</title>
<polygon fill="#ffffff" stroke="#ffffff" points="8,-8 8,-332 288.9257,-332 288.9257,-8 8,-8"/>
<text text-anchor="middle" x="148.4629" y="-295.6" font-family="Times,serif" font-size="36.00" fill="#000000">Color Legend</text>
</g>
<g id="clust2" class="cluster">
<title>cluster_main</title>
<polygon fill="none" stroke="transparent" points="39.757,-340 39.757,-486 774.6678,-486 774.6678,-340 39.757,-340"/>
<text text-anchor="middle" x="407.2124" y="-438.8" font-family="Times,serif" font-size="48.00" fill="#000000">Data Source: Lab_B</text>
</g>
<!-- kc1 -->
<g id="node1" class="node">
<title>kc1</title>
<polygon fill="#cccccc" stroke="#000000" points="280.9257,-272 226.9257,-272 226.9257,-236 280.9257,-236 280.9257,-272"/>
</g>
<!-- k1 -->
<g id="node2" class="node">
<title>k1</title>
<text text-anchor="middle" x="88" y="-246.8" font-family="Times,serif" font-size="24.00" fill="#000000">file&#13;</text>
</g>
<!-- k1&#45;&gt;kc1 -->
<!-- kc2 -->
<g id="node3" class="node">
<title>kc2</title>
<polygon fill="#27408b" stroke="#000000" points="280.9257,-217 226.9257,-217 226.9257,-181 280.9257,-181 280.9257,-217"/>
</g>
<!-- k2 -->
<g id="node4" class="node">
<title>k2</title>
<text text-anchor="middle" x="88" y="-191.8" font-family="Times,serif" font-size="24.00" fill="#000000">output&#13;</text>
</g>
<!-- k2&#45;&gt;kc2 -->
<!-- kc3 -->
<g id="node5" class="node">
<title>kc3</title>
<polygon fill="#54ff9f" stroke="#000000" points="280.9257,-162 226.9257,-162 226.9257,-126 280.9257,-126 280.9257,-162"/>
</g>
<!-- k3 -->
<g id="node6" class="node">
<title>k3</title>
<text text-anchor="middle" x="88" y="-136.8" font-family="Times,serif" font-size="24.00" fill="#000000">raw&#13;</text>
</g>
<!-- k3&#45;&gt;kc3 -->
<!-- kc4 -->
<g id="node7" class="node">
<title>kc4</title>
<polygon fill="#43cd80" stroke="#000000" points="280.9257,-107 226.9257,-107 226.9257,-71 280.9257,-71 280.9257,-107"/>
</g>
<!-- k4 -->
<g id="node8" class="node">
<title>k4</title>
<text text-anchor="middle" x="88" y="-81.8" font-family="Times,serif" font-size="24.00" fill="#000000">staging&#13;</text>
</g>
<!-- k4&#45;&gt;kc4 -->
<!-- kc5 -->
<g id="node9" class="node">
<title>kc5</title>
<polygon fill="#2e8b57" stroke="#000000" points="280.9257,-52 226.9257,-52 226.9257,-16 280.9257,-16 280.9257,-52"/>
</g>
<!-- k5 -->
<g id="node10" class="node">
<title>k5</title>
<text text-anchor="middle" x="88" y="-26.8" font-family="Times,serif" font-size="24.00" fill="#000000">prod&#13;</text>
</g>
<!-- k5&#45;&gt;kc5 -->
<!-- 1 -->
<g id="node11" class="node">
<title>1</title>
<g id="a_node11"><a xlink:title="file&#10;test_results.&#10;csv">
<polygon fill="#cccccc" stroke="#000000" points="128.4875,-412.4013 47.5125,-412.4013 47.5125,-347.5988 128.4875,-347.5988 128.4875,-412.4013"/>
<text text-anchor="middle" x="88" y="-392.6" font-family="Times,serif" font-size="14.00" fill="#000000">file</text>
<text text-anchor="middle" x="88" y="-375.8" font-family="Times,serif" font-size="14.00" fill="#000000">test_results.</text>
<text text-anchor="middle" x="88" y="-359" font-family="Times,serif" font-size="14.00" fill="#000000">csv</text>
</a>
</g>
</g>
<!-- 4 -->
<g id="node14" class="node">
<title>4</title>
<g id="a_node14"><a xlink:title="raw&#10;lab_b_raw_events">
<polygon fill="#54ff9f" stroke="#000000" points="311.7772,-403.6017 196.0742,-403.6017 196.0742,-356.3983 311.7772,-356.3983 311.7772,-403.6017"/>
<text text-anchor="middle" x="253.9257" y="-384.2" font-family="Times,serif" font-size="14.00" fill="#000000">raw</text>
<text text-anchor="middle" x="253.9257" y="-367.4" font-family="Times,serif" font-size="14.00" fill="#000000">lab_b_raw_events</text>
</a>
</g>
</g>
<!-- 1&#45;&gt;4 -->
<g id="edge6" class="edge">
<title>1&#45;&gt;4</title>
<g id="a_edge6"><a xlink:href="https://github.com/mock_org/data_pipeline/blob/main/Lab_B/ingest_raw_1.R" xlink:title="ingest_raw_1_Lab_B.R">
<path fill="none" stroke="#000000" stroke-width="1.5" d="M128.59,-380C145.8287,-380 166.404,-380 185.8509,-380"/>
<polygon fill="#000000" stroke="#000000" stroke-width="1.5" points="185.8939,-383.5001 195.8939,-380 185.8938,-376.5001 185.8939,-383.5001"/>
</a>
</g>
</g>
<!-- 2 -->
<g id="node12" class="node">
<title>2</title>
<g id="a_node12"><a xlink:title="output&#10;lab_b_reports">
<polygon fill="#27408b" stroke="#000000" points="766.6559,-403.6017 675.7035,-403.6017 675.7035,-356.3983 766.6559,-356.3983 766.6559,-403.6017"/>
<text text-anchor="middle" x="721.1797" y="-384.2" font-family="Times,serif" font-size="14.00" fill="#fffafa">output</text>
<text text-anchor="middle" x="721.1797" y="-367.4" font-family="Times,serif" font-size="14.00" fill="#fffafa">lab_b_reports</text>
</a>
</g>
</g>
<!-- 3 -->
<g id="node13" class="node">
<title>3</title>
<g id="a_node13"><a xlink:title="prod&#10;lab_b_prod_events">
<polygon fill="#2e8b57" stroke="#000000" points="639.4576,-403.6017 519.3954,-403.6017 519.3954,-356.3983 639.4576,-356.3983 639.4576,-403.6017"/>
<text text-anchor="middle" x="579.4265" y="-384.2" font-family="Times,serif" font-size="14.00" fill="#fffafa">prod</text>
<text text-anchor="middle" x="579.4265" y="-367.4" font-family="Times,serif" font-size="14.00" fill="#fffafa">lab_b_prod_events</text>
</a>
</g>
</g>
<!-- 3&#45;&gt;2 -->
<g id="edge7" class="edge">
<title>3&#45;&gt;2</title>
<g id="a_edge7"><a xlink:href="https://github.com/mock_org/data_pipeline/blob/main/Lab_B/prod_to_output_1.R" xlink:title="prod_to_output_1_Lab_B.R">
<path fill="none" stroke="#000000" stroke-width="1.5" d="M639.5426,-380C648.126,-380 656.925,-380 665.4201,-380"/>
<polygon fill="#000000" stroke="#000000" stroke-width="1.5" points="665.5967,-383.5001 675.5967,-380 665.5966,-376.5001 665.5967,-383.5001"/>
</a>
</g>
</g>
<!-- 5 -->
<g id="node15" class="node">
<title>5</title>
<g id="a_node15"><a xlink:title="staging&#10;lab_b_staging_events">
<polygon fill="#43cd80" stroke="#000000" points="483.3168,-403.6017 347.696,-403.6017 347.696,-356.3983 483.3168,-356.3983 483.3168,-403.6017"/>
<text text-anchor="middle" x="415.5064" y="-384.2" font-family="Times,serif" font-size="14.00" fill="#000000">staging</text>
<text text-anchor="middle" x="415.5064" y="-367.4" font-family="Times,serif" font-size="14.00" fill="#000000">lab_b_staging_events</text>
</a>
</g>
</g>
<!-- 4&#45;&gt;5 -->
<g id="edge8" class="edge">
<title>4&#45;&gt;5</title>
<g id="a_edge8"><a xlink:href="https://github.com/mock_org/data_pipeline/blob/main/Lab_B/raw_to_staging_1.R" xlink:title="raw_to_staging_1_Lab_B.R">
<path fill="none" stroke="#000000" stroke-width="1.5" d="M311.8037,-380C320.1997,-380 328.9558,-380 337.666,-380"/>
<polygon fill="#000000" stroke="#000000" stroke-width="1.5" points="337.8457,-383.5001 347.8457,-380 337.8457,-376.5001 337.8457,-383.5001"/>
</a>
</g>
</g>
<!-- 5&#45;&gt;3 -->
<g id="edge9" class="edge">
<title>5&#45;&gt;3</title>
<g id="a_edge9"><a xlink:href="https://github.com/mock_org/data_pipeline/blob/main/Lab_B/staging_to_prod_1.R" xlink:title="staging_to_prod_1_Lab_B.R">
<path fill="none" stroke="#000000" stroke-width="1.5" d="M483.5992,-380C492.0416,-380 500.6861,-380 509.1603,-380"/>
<polygon fill="#000000" stroke="#000000" stroke-width="1.5" points="509.3876,-383.5001 519.3876,-380 509.3875,-376.5001 509.3876,-383.5001"/>
</a>
</g>
</g>
</g>
</svg>

