<?xml version="1.0" encoding="UTF-8" standalone="no"?>
<!DOCTYPE svg PUBLIC "-//W3C//DTD SVG 1.1//EN"
 "http://www.w3.org/Graphics/SVG/1.1/DTD/svg11.dtd">
<!-- Generated by graphviz version 2.40.1 (20161225.0304)
 -->
<!-- Pages: 1 -->
<svg width="896pt" height="502pt"
 viewBox="0.00 0.00 896.43 502.00" xmlns="http://www.w3.org/2000/svg" xmlns:xlink="http://www.w3.org/1999/xlink">
<g id="graph0" class="graph" transform="scale(1 1) rotate(0) translate(4 498)">
<polygon fill="#ffffff" stroke="transparent" points="-4,4 -4,-498 892.4294,-498 892.4294,4 -4,4"/>
<g id="clust1" class="cluster">
<title>cluster_legend</title>
<polygon fill="#ffffff" stroke="#ffffff" points="8,-8 8,-332 302.1459,-332 302.1459,-8 8,-8"/>
<text text-anchor="middle" x="155.073" y="-295.6" font-family="Times,serif" font-size="36.00" fill="#000000">Color Legend</text>
</g>
<g id="clust2" class="cluster">
<title>cluster_main</title>
<polygon fill="none" stroke="transparent" points="34.3166,-340 34.3166,-486 880.4294,-486 880.4294,-340 34.3166,-340"/>
<text text-anchor="middle" x="457.373" y="-438.8" font-family="Times,serif" font-size="48.00" fill="#000000">Data Source: Hospital_A</text>
</g>
<!-- kc1 -->
<g id="node1" class="node">
<title>kc1</title>
<polygon fill="#009acd" stroke="#000000" points="294.1459,-272 240.1459,-272 240.1459,-236 294.1459,-236 294.1459,-272"/>
</g>
<!-- k1 -->
<g id="node2" class="node">
<title>k1</title>
<text text-anchor="middle" x="88" y="-246.8" font-family="Times,serif" font-size="24.00" fill="#000000">url&#13;</text>
</g>
<!-- k1&#45;&gt;kc1 -->
<!-- kc2 -->
<g id="node3" class="node">
<title>kc2</title>
<polygon fill="#27408b" stroke="#000000" points="294.1459,-217 240.1459,-217 240.1459,-181 294.1459,-181 294.1459,-217"/>
</g>
<!-- k2 -->
<g id="node4" class="node">
<title>k2</title>
<text text-anchor="middle" x="88" y="-191.8" font-family="Times,serif" font-size="24.00" fill="#000000">output&#13;</text>
</g>
<!-- k2&#45;&gt;kc2 -->
<!-- kc3 -->
<g id="node5" class="node">
<title>kc3</title>
<polygon fill="#54ff9f" stroke="#000000" points="294.1459,-162 240.1459,-162 240.1459,-126 294.1459,-126 294.1459,-162"/>
</g>
<!-- k3 -->
<g id="node6" class="node">
<title>k3</title>
<text text-anchor="middle" x="88" y="-136.8" font-family="Times,serif" font-size="24.00" fill="#000000">raw&#13;</text>
</g>
<!-- k3&#45;&gt;kc3 -->
<!-- kc4 -->
<g id="node7" class="node">
<title>kc4</title>
<polygon fill="#43cd80" stroke="#000000" points="294.1459,-107 240.1459,-107 240.1459,-71 294.1459,-71 294.1459,-107"/>
</g>
<!-- k4 -->
<g id="node8" class="node">
<title>k4</title>
<text text-anchor="middle" x="88" y="-81.8" font-family="Times,serif" font-size="24.00" fill="#000000">staging&#13;</text>
</g>
<!-- k4&#45;&gt;kc4 -->
<!-- kc5 -->
<g id="node9" class="node">
<title>kc5</title>
<polygon fill="#2e8b57" stroke="#000000" points="294.1459,-52 240.1459,-52 240.1459,-16 294.1459,-16 294.1459,-52"/>
</g>
<!-- k5 -->
<g id="node10" class="node">
<title>k5</title>
<text text-anchor="middle" x="88" y="-26.8" font-family="Times,serif" font-size="24.00" fill="#000000">prod&#13;</text>
</g>
<!-- k5&#45;&gt;kc5 -->
<!-- 1 -->
<g id="node11" class="node">
<title>1</title>
<g id="a_node11"><a xlink:title="output&#10;hospital_a_reports">
<polygon fill="#27408b" stroke="#000000" points="872.6384,-403.6017 754.8038,-403.6017 754.8038,-356.3983 872.6384,-356.3983 872.6384,-403.6017"/>
<text text-anchor="middle" x="813.7211" y="-384.2" font-family="Times,serif" font-size="14.00" fill="#fffafa">output</text>
<text text-anchor="middle" x="813.7211" y="-367.4" font-family="Times,serif" font-size="14.00" fill="#fffafa">hospital_a_reports</text>
</a>
</g>
</g>
<!-- 2 -->
<g id="node12" class="node">
<title>2</title>
<g id="a_node12"><a xlink:title="prod&#10;hospital_a_prod_events">
<polygon fill="#2e8b57" stroke="#000000" points="718.9981,-403.6017 572.0569,-403.6017 572.0569,-356.3983 718.9981,-356.3983 718.9981,-403.6017"/>
<text text-anchor="middle" x="645.5275" y="-384.2" font-family="Times,serif" font-size="14.00" fill="#fffafa">prod</text>
<text text-anchor="middle" x="645.5275" y="-367.4" font-family="Times,serif" font-size="14.00" fill="#fffafa">hospital_a_prod_events</text>
</a>
</g>
</g>
<!-- 2&#45;&gt;1 -->
<g id="edge6" class="edge">
<title>2&#45;&gt;1</title>
<g id="a_edge6"><a xlink:href="https://github.com/mock_org/data_pipeline/blob/main/Hospital_A/prod_to_output_1.R" xlink:title="prod_to_output_1_Hospital_A.R">
<path fill="none" stroke="#000000" stroke-width="1.5" d="M719.2997,-380C727.771,-380 736.3843,-380 744.7885,-380"/>
<polygon fill="#000000" stroke="#000000" stroke-width="1.5" points="744.9127,-383.5001 754.9127,-380 744.9126,-376.5001 744.9127,-383.5001"/>
</a>
</g>
</g>
<!-- 3 -->
<g id="node13" class="node">
<title>3</title>
<g id="a_node13"><a xlink:title="raw&#10;hospital_a_raw_events">
<polygon fill="#54ff9f" stroke="#000000" points="338.438,-403.6017 195.8538,-403.6017 195.8538,-356.3983 338.438,-356.3983 338.438,-403.6017"/>
<text text-anchor="middle" x="267.1459" y="-384.2" font-family="Times,serif" font-size="14.00" fill="#000000">raw</text>
<text text-anchor="middle" x="267.1459" y="-367.4" font-family="Times,serif" font-size="14.00" fill="#000000">hospital_a_raw_events</text>
</a>
</g>
</g>
<!-- 4 -->
<g id="node14" class="node">
<title>4</title>
<g id="a_node14"><a xlink:title="staging&#10;hospital_a_staging_events">
<polygon fill="#43cd80" stroke="#000000" points="535.9176,-403.6017 374.4164,-403.6017 374.4164,-356.3983 535.9176,-356.3983 535.9176,-403.6017"/>
<text text-anchor="middle" x="455.167" y="-384.2" font-family="Times,serif" font-size="14.00" fill="#000000">staging</text>
<text text-anchor="middle" x="455.167" y="-367.4" font-family="Times,serif" font-size="14.00" fill="#000000">hospital_a_staging_events</text>
</a>
</g>
</g>
<!-- 3&#45;&gt;4 -->
<g id="edge7" class="edge">
<title>3&#45;&gt;4</title>
<g id="a_edge7"><a xlink:href="https://github.com/mock_org/data_pipeline/blob/main/Hospital_A/raw_to_staging_1.R" xlink:title="raw_to_staging_1_Hospital_A.R">
<path fill="none" stroke="#000000" stroke-width="1.5" d="M338.4967,-380C346.8596,-380 355.4768,-380 364.0617,-380"/>
<polygon fill="#000000" stroke="#000000" stroke-width="1.5" points="364.1076,-383.5001 374.1076,-380 364.1075,-376.5001 364.1076,-383.5001"/>
</a>
</g>
</g>
<!-- 4&#45;&gt;2 -->
<g id="edge8" class="edge">
<title>4&#45;&gt;2</title>
<g id="a_edge8"><a xlink:href="https://github.com/mock_org/data_pipeline/blob/main/Hospital_A/staging_to_prod_1.R" xlink:title="staging_to_prod_1_Hospital_A.R">
<path fill="none" stroke="#000000" stroke-width="1.5" d="M536.173,-380C544.5903,-380 553.1589,-380 561.6074,-380"/>
<polygon fill="#000000" stroke="#000000" stroke-width="1.5" points="561.835,-383.5001 571.835,-380 561.835,-376.5001 561.835,-383.5001"/>
</a>
</g>
</g>
<!-- 5 -->
<g id="node15" class="node">
<title>5</title>
<g id="a_node15"><a xlink:title="url&#10;daily_reports.&#10;csv">
<polygon fill="#009acd" stroke="#000000" points="133.8675,-412.4013 42.1325,-412.4013 42.1325,-347.5988 133.8675,-347.5988 133.8675,-412.4013"/>
<text text-anchor="middle" x="88" y="-392.6" font-family="Times,serif" font-size="14.00" fill="#fffafa">url</text>
<text text-anchor="middle" x="88" y="-375.8" font-family="Times,serif" font-size="14.00" fill="#fffafa">daily_reports.</text>
<text text-anchor="middle" x="88" y="-359" font-family="Times,serif" font-size="14.00" fill="#fffafa">csv</text>
</a>
</g>
</g>
<!-- 5&#45;&gt;3 -->
<g id="edge9" class="edge">
<title>5&#45;&gt;3</title>
<g id="a_edge9"><a xlink:href="https://github.com/mock_org/data_pipeline/blob/main/Hospital_A/ingest_raw_1.R" xlink:title="ingest_raw_1_Hospital_A.R">
<path fill="none" stroke="#000000" stroke-width="1.5" d="M134.1345,-380C149.8205,-380 167.8514,-380 185.4715,-380"/>
<polygon fill="#000000" stroke="#000000" stroke-width="1.5" points="185.7777,-383.5001 195.7776,-380 185.7776,-376.5001 185.7777,-383.5001"/>
</a>
</g>
</g>
</g>
</svg>

