<?xml version="1.0" encoding="UTF-8" standalone="no"?>
<!DOCTYPE svg PUBLIC "-//W3C//DTD SVG 1.1//EN"
 "http://www.w3.org/Graphics/SVG/1.1/DTD/svg11.dtd">
<!-- Generated by graphviz version 2.40.1 (20161225.0304)
 -->
<!-- Pages: 1 -->
<svg width="730pt" height="430pt"
 viewBox="0.00 0.00 729.58 430.00" xmlns="http://www.w3.org/2000/svg" xmlns:xlink="http://www.w3.org/1999/xlink">
<g id="graph0" class="graph" transform="scale(1 1) rotate(0) translate(4 426)">
<polygon fill="#ffffff" stroke="transparent" points="-4,4 -4,-426 725.5824,-426 725.5824,4 -4,4"/>
<g id="clust1" class="cluster">
<title>cluster_legend</title>
<polygon fill="#ffffff" stroke="#ffffff" points="11.8016,-8 11.8016,-277 306.2435,-277 306.2435,-8 11.8016,-8"/>
<text text-anchor="middle" x="159.0226" y="-240.6" font-family="Times,serif" font-size="36.00" fill="#000000">Color Legend</text>
</g>
<g id="clust2" class="cluster">
<title>cluster_main</title>
<polygon fill="none" stroke="transparent" points="8,-285 8,-414 713.5824,-414 713.5824,-285 8,-285"/>
<text text-anchor="middle" x="360.7912" y="-366.8" font-family="Times,serif" font-size="48.00" fill="#000000">Data Source: Survey_C</text>
</g>
<!-- kc1 -->
<g id="node1" class="node">
<title>kc1</title>
<polygon fill="#54ff9f" stroke="#000000" points="298.2435,-217 244.2435,-217 244.2435,-181 298.2435,-181 298.2435,-217"/>
</g>
<!-- k1 -->
<g id="node2" class="node">
<title>k1</title>
<text text-anchor="middle" x="91.8016" y="-191.8" font-family="Times,serif" font-size="24.00" fill="#000000">raw&#13;</text>
</g>
<!-- k1&#45;&gt;kc1 -->
<!-- kc2 -->
<g id="node3" class="node">
<title>kc2</title>
<polygon fill="#43cd80" stroke="#000000" points="298.2435,-162 244.2435,-162 244.2435,-126 298.2435,-126 298.2435,-162"/>
</g>
<!-- k2 -->
<g id="node4" class="node">
<title>k2</title>
<text text-anchor="middle" x="91.8016" y="-136.8" font-family="Times,serif" font-size="24.00" fill="#000000">staging&#13;</text>
</g>
<!-- k2&#45;&gt;kc2 -->
<!-- kc3 -->
<g id="node5" class="node">
<title>kc3</title>
<polygon fill="#2e8b57" stroke="#000000" points="298.2435,-107 244.2435,-107 244.2435,-71 298.2435,-71 298.2435,-107"/>
</g>
<!-- k3 -->
<g id="node6" class="node">
<title>k3</title>
<text text-anchor="middle" x="91.8016" y="-81.8" font-family="Times,serif" font-size="24.00" fill="#000000">prod&#13;</text>
</g>
<!-- k3&#45;&gt;kc3 -->
<!-- kc4 -->
<g id="node7" class="node">
<title>kc4</title>
<polygon fill="#4f94cd" stroke="#000000" points="298.2435,-52 244.2435,-52 244.2435,-16 298.2435,-16 298.2435,-52"/>
</g>
<!-- k4 -->
<g id="node8" class="node">
<title>k4</title>
<text text-anchor="middle" x="91.8016" y="-26.8" font-family="Times,serif" font-size="24.00" fill="#000000">redcapAPI&#13;</text>
</g>
<!-- k4&#45;&gt;kc4 -->
<!-- 1 -->
<g id="node9" class="node">
<title>1</title>
<g id="a_node9"><a xlink:title="prod&#10;survey_c_prod_events">
<polygon fill="#2e8b57" stroke="#000000" points="705.5621,-340.6017 565.6433,-340.6017 565.6433,-293.3983 705.5621,-293.3983 705.5621,-340.6017"/>
<text text-anchor="middle" x="635.6027" y="-321.2" font-family="Times,serif" font-size="14.00" fill="#fffafa">prod</text>
<text text-anchor="middle" x="635.6027" y="-304.4" font-family="Times,serif" font-size="14.00" fill="#fffafa">survey_c_prod_events</text>
</a>
</g>
</g>
<!-- 2 -->
<g id="node10" class="node">
<title>2</title>
<g id="a_node10"><a xlink:title="raw&#10;survey_c_raw_events">
<polygon fill="#54ff9f" stroke="#000000" points="339.0244,-340.6017 203.4626,-340.6017 203.4626,-293.3983 339.0244,-293.3983 339.0244,-340.6017"/>
<text text-anchor="middle" x="271.2435" y="-321.2" font-family="Times,serif" font-size="14.00" fill="#000000">raw</text>
<text text-anchor="middle" x="271.2435" y="-304.4" font-family="Times,serif" font-size="14.00" fill="#000000">survey_c_raw_events</text>
</a>
</g>
</g>
<!-- 4 -->
<g id="node12" class="node">
<title>4</title>
<g id="a_node12"><a xlink:title="staging&#10;survey_c_staging_events">
<polygon fill="#43cd80" stroke="#000000" points="529.4928,-340.6017 375.014,-340.6017 375.014,-293.3983 529.4928,-293.3983 529.4928,-340.6017"/>
<text text-anchor="middle" x="452.2534" y="-321.2" font-family="Times,serif" font-size="14.00" fill="#000000">staging</text>
<text text-anchor="middle" x="452.2534" y="-304.4" font-family="Times,serif" font-size="14.00" fill="#000000">survey_c_staging_events</text>
</a>
</g>
</g>
<!-- 2&#45;&gt;4 -->
<g id="edge5" class="edge">
<title>2&#45;&gt;4</title>
<g id="a_edge5"><a xlink:href="https://github.com/mock_org/data_pipeline/blob/main/Survey_C/raw_to_staging_1.R" xlink:title="raw_to_staging_1_Survey_C.R">
<path fill="none" stroke="#000000" stroke-width="1.5" d="M338.9023,-317C347.3467,-317 356.075,-317 364.7662,-317"/>
<polygon fill="#000000" stroke="#000000" stroke-width="1.5" points="364.9326,-320.5001 374.9326,-317 364.9325,-313.5001 364.9326,-320.5001"/>
</a>
</g>
</g>
<!-- 3 -->
<g id="node11" class="node">
<title>3</title>
<g id="a_node11"><a xlink:title="redcapAPI&#10;redcap_survey_c_events">
<polygon fill="#4f94cd" stroke="#000000" points="167.4053,-340.6017 16.1979,-340.6017 16.1979,-293.3983 167.4053,-293.3983 167.4053,-340.6017"/>
<text text-anchor="middle" x="91.8016" y="-321.2" font-family="Times,serif" font-size="14.00" fill="#fffafa">redcapAPI</text>
<text text-anchor="middle" x="91.8016" y="-304.4" font-family="Times,serif" font-size="14.00" fill="#fffafa">redcap_survey_c_events</text>
</a>
</g>
</g>
<!-- 3&#45;&gt;2 -->
<g id="edge6" class="edge">
<title>3&#45;&gt;2</title>
<g id="a_edge6"><a xlink:href="https://github.com/mock_org/data_pipeline/blob/main/Survey_C/ingest_raw_1.R" xlink:title="ingest_raw_1_Survey_C.R">
<path fill="none" stroke="#000000" stroke-width="1.5" d="M167.641,-317C176.0733,-317 184.6733,-317 193.1332,-317"/>
<polygon fill="#000000" stroke="#000000" stroke-width="1.5" points="193.3623,-320.5001 203.3622,-317 193.3622,-313.5001 193.3623,-320.5001"/>
</a>
</g>
</g>
<!-- 4&#45;&gt;1 -->
<g id="edge7" class="edge">
<title>4&#45;&gt;1</title>
<g id="a_edge7"><a xlink:href="https://github.com/mock_org/data_pipeline/blob/main/Survey_C/staging_to_prod_1.R" xlink:title="staging_to_prod_1_Survey_C.R">
<path fill="none" stroke="#000000" stroke-width="1.5" d="M529.7443,-317C538.1517,-317 546.7223,-317 555.1639,-317"/>
<polygon fill="#000000" stroke="#000000" stroke-width="1.5" points="555.3771,-320.5001 565.3771,-317 555.377,-313.5001 555.3771,-320.5001"/>
</a>
</g>
</g>
</g>
</svg>

